<svg id="b146e7ed-c5bf-4ede-abdb-289cf0e490cf" data-name="bf8f446f-dee8-434b-a7ed-bc0ad4e58202" xmlns="http://www.w3.org/2000/svg" width="865.76" height="682.89" viewBox="0 0 865.76 682.89"><path d="M741.1,283.83c.1,67.13-36.56,186-267.24,271.87q-10.94,4.06-22.48,8c-11.54,3.94-107.75,32.3-197.72,13.43-34.92-7.33-67.16-22.36-89.39-50a114,114,0,0,1-22.56-49c-5.64-27.84-21.89-93.26-54.83-124.6a35.17,35.17,0,0,0-3.49-2.84c-8-5.73-41.65-32.3-41.17-71.24a66.5,66.5,0,0,1,15.94-41.79C86.17,204.36,185,96.45,300,82.39c0,0,248.72-31.26,407.46,122.58A110.24,110.24,0,0,1,741.1,283.83Z" fill="#0071f2"/><path d="M741.1,283.83c.1,67.13-36.56,186-267.24,271.87q-10.94,4.06-22.48,8c-11.54,3.94-107.75,32.3-197.72,13.43-34.92-7.33-67.16-22.36-89.39-50a114,114,0,0,1-22.56-49c-5.64-27.84-21.89-93.26-54.83-124.6a35.17,35.17,0,0,0-3.49-2.84c-8-5.73-41.65-32.3-41.17-71.24a66.5,66.5,0,0,1,15.94-41.79C86.17,204.36,185,96.45,300,82.39c0,0,248.72-31.26,407.46,122.58A110.24,110.24,0,0,1,741.1,283.83Z" fill="#fff" opacity="0.7" style="isolation:isolate"/><path d="M473.86,555.7q-10.94,4.06-22.48,8c-11.54,3.94-107.75,32.3-197.72,13.43l11.59-79.67c6.5-57.39-4.14-86.08-4.14-86.08-8.48-17.87-7.22-52.52-7.22-52.52C242.51,364.81,205.15,380,205.15,380l46.06-112.88,47.86-17.18a29,29,0,0,1,18-4.12l20.53,4.78,95.68-49.45,26.9,284.44c-1.08,8.65,1.63,19.49,1.63,19.49C463.81,514.73,470.56,542.32,473.86,555.7Z" fill="#0071f2"/><path d="M433.65,201.92h-4.31l-33.89,33.69V196.29a84,84,0,0,0,10.95-32c5.94,3.63,9.16-.73,9.16-.73S432.57,179.18,433.65,201.92Z" fill="#2f2e41"/><path d="M418.36,192.23a25.48,25.48,0,0,1,1.17,4.27,43.3,43.3,0,0,1,.61,4.39c.11,1.47.18,3,.16,4.43,0,.73,0,1.47-.07,2.21s-.11,1.47-.19,2.2l-.23-4.4c-.09-1.47-.17-2.93-.3-4.39s-.28-2.91-.46-4.36c-.09-.73-.19-1.45-.31-2.18S418.5,193,418.36,192.23Z" fill="#231f20"/><path d="M395.45,196.29v44l-32.19,34.65c-29.79-2.16-49.82-27.07-49.82-27.07,10.83-5.41,10.83-11.37,10.83-11.37V206.93c9.83,7.44,19.61,13.8,31.48,13.8C371.74,220.73,386,211.56,395.45,196.29Z" fill="#f9b499"/><path d="M337.59,216.9s25.08,32.39,57.86,0V196.29S374.62,235.61,337.59,216.9Z" fill="#f7a48b"/><path d="M252.8,325.29a80.93,80.93,0,0,1,1.72,8.3q.66,4.2.95,8.44c.06.7.07,1.41.09,2.12a18.92,18.92,0,0,1,0,2.13v2.12c0,.71-.08,1.42-.13,2.13a34.26,34.26,0,0,1-1.58,8.33c.14-.7.29-1.39.44-2.07s.2-1.4.31-2.09c0-.35.11-.7.14-1.05l.08-1c0-.7.13-1.4.13-2.1a76.5,76.5,0,0,0-.14-8.43c-.13-2.81-.46-5.61-.8-8.41-.16-1.4-.36-2.8-.57-4.19S253,326.68,252.8,325.29Z" opacity="0.2" style="isolation:isolate"/><path d="M143.08,337.75s3.44,53.42,43.5,51.89c0,0,24.44.55,40.82-51.89,0,0-20.14,20.63-42.16,15.27C185.24,353,152.94,361.58,143.08,337.75Z" fill="#f7a48b"/><path d="M156.57,351.94c12.25,5,28.67,1.08,28.67,1.08,24.23,6.1,42.16-15.27,42.16-15.27,16.79-19.07,27.93-57.61,27.93-57.61l6.41-36.24c7.63-38.92-2.29-36.63-2.29-36.63-17.17-.38-22.51,38.16-22.51,38.16-3.05,16.4-5.72,16-5.72,16l3.43-124c-2.67-33.19-11.83-28.23-11.83-28.23-8.39,0-11.44,20.22-11.44,20.22,1.52-37.77-11.83-33.57-11.83-33.57C188.1,95.49,187,119.14,187,119.14c-22.13-27.85-24.8,46.6-24.8,46.6C157.2,215,150.78,226,150.78,226c-1.45-15.64-.83-38.92-.83-38.92,3.82-31.28-6.72-29.28-6.72-29.28-14.64-2.38-15.41,73.53-15.41,73.53s-9.92,74.79,15.26,106.45C143.08,337.75,146.41,347.81,156.57,351.94Z" fill="#f9b499"/><path d="M187,119.14q-.33,6.42-.74,12.83l-.91,12.83q-1,12.81-2.24,25.61c-.88,8.52-1.8,17-3,25.54l-.42,3.18-.48,3.18c-.32,2.12-.6,4.24-1,6.36s-.72,4.22-1.1,6.33l-1.24,6.31L177,215c.34-2.11.64-4.23,1-6.35s.59-4.24.89-6.36l.43-3.19.38-3.19q1.59-12.74,2.82-25.54c.82-8.54,1.63-17.05,2.38-25.58l1-12.79C186.28,127.68,186.64,123.41,187,119.14Z" fill="#f7a48b"/><path d="M211.38,129.44c0,4,0,8-.09,12s-.19,8-.33,12q-.44,12-1.34,24c-.64,8-1.37,16-2.48,23.94A191.64,191.64,0,0,1,202.6,225l1.29-5.88c.39-2,.7-3.94,1.05-5.91s.61-4,.92-5.94l.44-3,.36-3c1-7.95,1.74-15.93,2.33-23.93s1.09-16,1.48-24c.21-4,.37-8,.52-12S211.29,133.45,211.38,129.44Z" fill="#f7a48b"/><path d="M231.22,261.45a14.67,14.67,0,0,1-.42,4.76,25.79,25.79,0,0,1-1.56,4.53,38.25,38.25,0,0,1-5.07,8.14,24,24,0,0,1-1.55,1.84,18.18,18.18,0,0,1-1.63,1.77c-1.14,1.12-2.23,2.3-3.46,3.32l-1.81,1.59c-.59.53-1.25,1-1.87,1.5l-3.76,3a95.75,95.75,0,0,0-13.69,13.24,43.24,43.24,0,0,0-5.32,7.88,17.39,17.39,0,0,0-2.21,9.14,13.15,13.15,0,0,1,.31-4.76,22,22,0,0,1,1.62-4.52,43.47,43.47,0,0,1,5.22-8,77.56,77.56,0,0,1,6.49-7.07c2.3-2.22,4.7-4.35,7.18-6.36l3.79-2.93,1.87-1.48,1.79-1.57c1.23-1,2.32-2.17,3.46-3.27.59-.54,1.08-1.16,1.62-1.74a22.09,22.09,0,0,0,1.57-1.79,38.14,38.14,0,0,0,5.17-8,25.43,25.43,0,0,0,1.68-4.45l.28-1.16c.07-.39.12-.79.19-1.18A11.61,11.61,0,0,0,231.22,261.45Z" fill="#f7a48b"/><path d="M158.73,261.45c2,3.39,3.76,6.87,5.49,10.37s3.35,7.08,4.89,10.69,2.93,7.26,4.11,11a62.24,62.24,0,0,1,2.68,11.43l-.61-2.86c-.23-.95-.51-1.89-.76-2.83s-.56-1.87-.84-2.81l-.44-1.39-.49-1.38c-1.27-3.69-2.7-7.33-4.23-10.92s-3.11-7.17-4.74-10.72c-.82-1.77-1.66-3.53-2.51-5.3S159.59,263.21,158.73,261.45Z" fill="#f7a48b"/><polygon points="345.74 285.51 429.34 201.92 546.04 201.92 630.55 286.43 630.55 402.42 545.87 487.1 426.79 487.1 345.24 405.55 345.74 285.51" fill="#fff"/><polygon points="360.84 291.78 435.56 217.06 539.86 217.06 615.39 292.6 615.39 396.27 539.71 471.95 433.28 471.95 360.39 399.06 360.84 291.78" fill="#0071f2"/><polygon points="360.84 291.78 435.56 217.06 539.86 217.06 615.39 292.6 615.39 396.27 539.71 471.95 433.28 471.95 360.39 399.06 360.84 291.78" opacity="0.2" style="isolation:isolate"/><path d="M656.87,371.67c-.56-3.46-3.84-7.25-4.1-9.56a8.45,8.45,0,0,1,1.63-5.85,11.69,11.69,0,0,0,.07-14.25,10.62,10.62,0,0,0-2.43-2.44,8.67,8.67,0,0,1-3.12-4.55,9.68,9.68,0,0,1-.2-4.57c2.71-13.46-16.19-18.86-16.19-18.86-21.23-11.61-49.66,19.23-49.66,19.23-7.61,8.41,1.6,13.69,1.6,13.69s-18,8.73-13.22,17.54c0,0,.8,4,10.82,3.21,0,0-15.62,6.81-8.81,14.41,0,0,4.4,3.14,16.67,0,0,0-10.47,2.65-6.13,8.78,0,0,2.88,6.86,23.1,5.42,0,0,15.18-3.11,23.65,8.55l-9.36,9.36s29.74.14,29.74-13.94c0,0-1.8-6.14,1.81-9.75C652.74,388.09,659.33,387.07,656.87,371.67Z" fill="#f9b499"/><path d="M584.62,344.78l-.3-.55,24.23-13.44c.34-.25,9.4-6.47,31.69,4.32l-.27.57c-21.91-10.6-31-4.42-31.08-4.36Z" fill="#f7a48b"/><path d="M582.19,365.55l-.25-.58,24.51-10.63a24.62,24.62,0,0,1,19.59-.13l.85.39,16.56,5.48-.2.6-16.6-5.49-.87-.4a23.91,23.91,0,0,0-19.07.13Z" fill="#f7a48b"/><path d="M639.94,384.76l-13-7.64c-9.83-5.67-14.45-2.87-14.49-2.84h-.1L590,380l-.16-.61,22.31-5.65c.55-.32,5.36-2.77,15.11,2.85l13,7.64Z" fill="#f7a48b"/><path d="M525.26,273.22a5.15,5.15,0,0,0-5.42.35,14.24,14.24,0,0,0-2.83,4c-2.82,5.14-5.42,10.49-8.2,15.61a3.3,3.3,0,0,1-1.75,1.52,24.32,24.32,0,0,0-16.86,21.12,1.47,1.47,0,0,1-.27.63.86.86,0,0,1-1.19.19.83.83,0,0,1-.26-.3,1.41,1.41,0,0,1-.19-.7A26.22,26.22,0,0,1,506,293a2.6,2.6,0,0,0,1.83-2.48V250.08a8.08,8.08,0,0,0-1-4,5.51,5.51,0,0,0-10,3.27v32a4.86,4.86,0,0,1,0,.54.86.86,0,0,1-.91.8.82.82,0,0,1-.56-.26,1.4,1.4,0,0,1-.45-1.17V244.79a7.2,7.2,0,0,0-1-3.5,5.43,5.43,0,0,0-6.29-2,5.23,5.23,0,0,0-3.74,5.24v37.72a2.71,2.71,0,0,1-.47.59.85.85,0,0,1-1.2.08h0l-.07-.07a.89.89,0,0,1-.22-.43v-31.1a5.24,5.24,0,0,0-2.47-4.81,5.53,5.53,0,0,0-5.71-.23,5.34,5.34,0,0,0-2.9,5.25V284a3,3,0,0,1-.55,1.52h-.14a.88.88,0,0,1-1-.72v-.1l-.29-26.22a5.24,5.24,0,0,0-5.14-5.35h-.11a5.16,5.16,0,0,0-5.25,5.07,3.53,3.53,0,0,0,0,.46v55.77a20.56,20.56,0,0,0,11,18.77c7.77,4.32,16.2,4.81,24.8,3.5,8.18-1.19,14.07-5.44,17.06-13.36,4.56-12.13,9.26-24.22,13.72-36.4,1.13-3.12,1.85-4.22,2.85-7.4A5,5,0,0,0,525.26,273.22Z" fill="#fff"/><path d="M426.26,352.63h9.88c6.25,0,9.33,3.49,9.33,9.82v20.12c0,6.36-3.08,9.82-9.33,9.82h-9.88Zm6.24,5.68v28.4H436c2,0,3.18-1,3.18-3.86V362.17c0-2.85-1.19-3.86-3.18-3.86Z" fill="#fff"/><path d="M448.91,362.17c0-6.36,3.36-10,9.49-10s9.49,3.64,9.49,10v20.68c0,6.36-3.35,10-9.49,10s-9.49-3.64-9.49-10Zm6.26,21.08c0,2.83,1.24,3.92,3.23,3.92s3.24-1.09,3.24-3.92V361.77c0-2.83-1.24-3.92-3.24-3.92s-3.23,1.09-3.23,3.92Z" fill="#fff"/><path d="M491.42,363.59v28.8h-5.63V352.63h7.85l6.41,23.79V352.63h5.56v39.76H499.2Z" fill="#fff"/><path d="M509.6,362.17c0-6.36,3.34-10,9.47-10s9.49,3.64,9.49,10v20.68c0,6.36-3.35,10-9.49,10s-9.47-3.64-9.47-10Zm6.24,21.06c0,2.85,1.26,3.94,3.23,3.94s3.25-1.09,3.25-3.94V361.77c0-2.85-1.26-3.92-3.25-3.92s-3.23,1.07-3.23,3.92Z" fill="#fff"/><path d="M530.83,352.63h19.23v5.68h-6.54v34.08H537.3V358.31h-6.47Z" fill="#fff"/><path d="M442.1,421.83h8.58v5.76H442.1v11.66h10.8v5.68H435.84V405.08H452.9v5.68H442.1Z" fill="#fff"/><path d="M462.32,416v28.8h-5.63V405.08h7.85L471,428.89V405.08h5.56v39.76H470.1Z" fill="#fff"/><path d="M479.18,405.08H498.5v5.68H492v34.08h-6.24V410.76h-6.54Z" fill="#fff"/><path d="M507.46,421.83h8.59v5.76h-8.59v11.66h10.81v5.68h-17V405.08h17v5.68H507.46Z" fill="#fff"/><path d="M535.19,444.84a11.93,11.93,0,0,1-.58-4.89v-6.24c0-3.69-1.24-5-4.09-5h-2.15v16.18h-6.28V405.08h9.44c6.47,0,9.27,3,9.27,9.14v3.13c0,4.09-1.31,6.77-4.09,8.06,3.11,1.31,4.14,4.32,4.14,8.48V440a11.62,11.62,0,0,0,.68,4.82Zm-6.82-34.08V423h2.46c2.33,0,3.74-1,3.74-4.2v-3.91c0-2.85-1-4.09-3.18-4.09Z" fill="#fff"/><polygon points="362.16 400.83 550.06 226.74 572.44 249.64 386.62 425.29 362.16 400.83" fill="#fff" opacity="0.3" style="isolation:isolate"/><polygon points="391.11 429.79 579.14 256.34 585.83 263.03 399.63 438.3 391.11 429.79" fill="#fff" opacity="0.3" style="isolation:isolate"/><path d="M502.15,119.77a31.54,31.54,0,0,0-22.12,54v11.44l10-4.78a31.54,31.54,0,1,0,12.09-60.68Z" fill="#fff"/><path d="M479.53,186V174a31.87,31.87,0,1,1,10.54,7Zm22.62-65.75a31,31,0,0,0-21.77,53.17l.15.14v10.86l9.52-4.54.2.09a31,31,0,1,0,11.9-59.72Z" fill="#2f2e41"/><g id="adc1ded1-052f-4b03-9162-fbd461ad7a64" data-name="a742a29e-8af4-4321-a1f4-6c22b1529f3b"><polygon points="103.76 307.64 93.58 297.54 103.68 287.37 97.83 281.57 87.74 291.75 77.56 281.65 71.76 287.49 81.93 297.59 71.85 307.76 77.69 313.57 87.79 303.39 97.96 313.48 103.76 307.64" fill="#f5f5f5"/><polygon points="656.24 202.3 646.07 192.21 656.17 182.04 650.31 176.24 640.22 186.41 630.05 176.31 624.24 182.16 634.42 192.25 624.32 202.43 630.17 208.23 640.26 198.06 650.43 208.16 656.24 202.3" fill="#f5f5f5"/><polygon points="302.12 622.3 291.95 612.2 302.05 602.02 296.21 596.23 286.11 606.4 275.93 596.3 270.13 602.15 280.3 612.25 270.21 622.42 276.05 628.22 286.15 618.04 296.32 628.14 302.12 622.3" fill="#f5f5f5"/><path d="M127.09,397.67h0l-4-4.05h0l6.87-6.93-7-6.88h0l4-4h0l6.91,6.87,7-6.9h0l4,4h0L138,386.66l6.91,7h0l-4,4h0L134,390.74Zm-3.94-4.05,3.94,3.91,6.89-6.95h0l6.91,6.86,3.94-3.82-6.94-6.89h0l6.88-6.91-3.92-4-6.85,7h0l-7-6.86-3.91,3.94,7,6.88h0Z" fill="#e0e0e0"/><path d="M94.79,528.72V468.58l42.7-43h59.78l42.34,42.21v59.75l-41.87,41.87h-60Z" fill="#fff"/><path d="M94.79,528.72s.27.22.76.69l2.21,2.06,8.5,8,31.6,29.87-.11-.12h59.93l-.2.08,41.85-41.91-.09.21V467.87l.1.23-.75-.76L197.1,425.83l.22.1H137.54l.19-.07L95,468.65v-.14c0,18.85-.07,33.87-.1,44.18,0,5.16,0,9.13-.06,11.84V512.75c0-10.34,0-25.39-.09-44.27v-.14l42.64-43,.08-.09h60l.1.1,41.49,41.48.76.77.09.08v60l-.09.08L197.88,569.6l-.08.09h-.11l-59.94-.08h-.09l-.06-.06-31.5-30.06-8.4-8.06-2.16-2.09Z" fill="#e0e0e0"/><path d="M102.25,525.82V471.16l38.8-39h54.31l38.39,38.37v54.28l-38.05,38H141.26Z" fill="#ebebeb"/><path d="M102.25,525.82s.25.21.7.64l2,1.87,7.74,7.26,28.73,27.13h-.14l54.45-.08-.2.09,38.05-38.05-.09.21V470.62l.1.23-.69-.69-37.7-37.7.22.09h-54.3l.2-.08L102.4,471.31v-.15c0,17.18-.08,30.77-.1,40.16v10.81c0-2.46,0-6.06-.06-10.74,0-9.41,0-23.09-.1-40.23V471l38.75-39,.08-.08h54.56l.08.08,37.72,37.69.67.69.1.1V525H234L196,563l-.09.08h-.11L141.24,563h-.09l-.06-.06L112.5,535.7l-7.65-7.36-1.95-1.89A7.76,7.76,0,0,1,102.25,525.82Z" fill="#e0e0e0"/><rect x="130.55" y="483.98" width="78.03" height="24.25" fill="#fff"/><path d="M658.7,323.53V255.17l48.51-48.76h67.92l48,48v67.82l-47.58,47.59h-68Z" fill="#fff"/><path d="M658.7,323.53l.87.8c.58.53,1.41,1.31,2.45,2.35l9.66,9.09,35.89,34-.15-.06,68.08-.06-.19.07,47.59-47.61-.1.22V254.41l.1.22-.86-.85c-16.26-16.23-32.08-32.1-47.13-47.16l.22.1H707.21l.2-.08-48.56,48.72.06-.15c0,21.42-.08,38.49-.1,50.23V319c0-3.07,0-7.59-.06-13.5,0-11.75,0-28.85-.1-50.32V255l48.47-48.81.08-.09h68.17l.08.1,47.16,47.14.86.85.08.1v68.13l-.1.09-47.7,47.54-.08.07h-.12l-68-.07h-.08l-.06-.06L671.6,335.9l-9.6-9.15-2.46-2.37Z" fill="#e0e0e0"/><path d="M668.93,320.29v-62.1L713,213.88h61.71l43.62,43.61v61.66L775.1,362.39H713.24Z" fill="#e0e0e0"/><path d="M668.93,320.29l.8.73,2.28,2.12,8.77,8.26,32.61,30.83h-.15l61.86-.07-.2.08c13.17-13.18,27.76-27.8,43.21-43.25l-.09.21V257.49l.08.23-.77-.78L774.5,214.11l.22.08H713l.19-.07-44.12,44.25.06-.14c0,19.45-.07,35-.1,45.63v12.32c0-2.8,0-6.9-.06-12.21,0-10.68,0-26.22-.1-45.69v-.09l.07-.06,44-44.36.09-.08h62l.09.08L818,256.61l.78.77.09.09V319.4l-.09.08L775.47,362.7l-.09.07h-.11l-61.86-.06h-.08l-.07-.06-32.73-31.14-8.59-8.32L669.67,321Z" fill="#e0e0e0"/><rect x="699.3" y="272.76" width="88.66" height="27.55" fill="#fff"/></g><path d="M143.08,252.65a54.1,54.1,0,0,0,3.44-6.41,50.85,50.85,0,0,0,2.55-6.75,48,48,0,0,0,1.62-7,65.12,65.12,0,0,0,.68-7.25,30.21,30.21,0,0,1,.27,7.36,34.77,34.77,0,0,1-.49,3.67c-.28,1.21-.52,2.42-.91,3.6a34.58,34.58,0,0,1-2.87,6.82A27.69,27.69,0,0,1,143.08,252.65Z" fill="#f7a48b"/><polygon points="515.54 160.94 507.02 152.47 515.48 143.97 510.58 139.1 502.12 147.62 493.6 139.16 488.76 144.06 497.27 152.51 488.82 161.03 493.71 165.9 502.17 157.38 510.69 165.81 515.54 160.94" fill="#2f2e41"/><path d="M407.12,152.82c0,16.51-4.38,31.65-11.67,43.47-9.42,15.27-23.71,25-39.7,25-11.87,0-22.79-5.37-31.48-14.38-12.1-12.53-19.88-32.1-19.88-54.11,0-37.82,23-68.49,51.36-68.49S407.12,115,407.12,152.82Z" fill="#f9b499"/><ellipse cx="410.67" cy="152.5" rx="9.37" ry="13.24" fill="#f9b499"/><ellipse cx="303.87" cy="155.25" rx="9.37" ry="13.24" transform="translate(-29.21 81.09) rotate(-14.51)" fill="#f9b499"/><path d="M304.39,192.23S283,150.7,315.93,133.59a51.13,51.13,0,0,0,12.78-9.2c3.85-3.89,8.14-9.09,10.57-14.86,0,0,3.23,7.75-6.46,20a55.21,55.21,0,0,0,33.72-43.71s36,22.43,28.91,71.16c0,0,9.08-4.18,15.22-17.75,0,0,2.86-.71,6.42,3.59,0,0,20.88-73.66-45.17-83.4,0,0-46-17.33-70.39,14.07,0,0-33.57,34.11-14.08,81.76C287.45,155.28,287.82,181.28,304.39,192.23Z" fill="#2f2e41"/></svg>