<svg id="b0652510-f7df-4b26-922c-65b208a8413c" data-name="Layer 1" xmlns="http://www.w3.org/2000/svg" width="865.76" height="682.89" viewBox="0 0 865.76 682.89"><g id="fc7e0b59-37b3-4eb1-be62-c6e880683ca2" data-name="freepik--background-simple--inject-39"><path d="M690.18,180.25c-76.5-114.4-225.09-159.1-321.74-96.61s-93.13,97.53-140,202.5S97.89,416,108.94,509.75s93.65,158.11,202.63,154,243.55-5.54,341.89-80.28,104-191.17,104-191.17S766.67,294.64,690.18,180.25Z" fill="#0071f2"/><path d="M690.18,180.25c-76.5-114.4-225.09-159.1-321.74-96.61s-93.13,97.53-140,202.5S97.89,416,108.94,509.75s93.65,158.11,202.63,154,243.55-5.54,341.89-80.28,104-191.17,104-191.17S766.67,294.64,690.18,180.25Z" fill="#fff" opacity="0.7" style="isolation:isolate"/></g><rect x="500.37" y="291.42" width="90.64" height="341.78" fill="#2f2e41"/><rect x="500.37" y="291.42" width="90.64" height="341.78" opacity="0.2"/><rect x="591.01" y="291.42" width="166.81" height="341.78" fill="#2f2e41"/><rect x="603.53" y="588.86" width="143.88" height="33.23" opacity="0.2"/><rect x="609.58" y="594.35" width="81.9" height="2.8" fill="#fff"/><rect x="609.58" y="599.22" width="81.9" height="2.8" fill="#fff"/><rect x="609.58" y="604.08" width="81.9" height="2.8" fill="#fff"/><rect x="609.58" y="608.94" width="81.9" height="2.8" fill="#fff"/><rect x="609.58" y="613.8" width="81.9" height="2.8" fill="#fff"/><path d="M706.41,597.14a2.79,2.79,0,1,1-2.79-2.79A2.79,2.79,0,0,1,706.41,597.14Z" fill="#0071f2"/><path d="M715.58,597.14a2.79,2.79,0,1,1-2.79-2.79A2.79,2.79,0,0,1,715.58,597.14Z" fill="#0071f2"/><path d="M724.75,597.14a2.79,2.79,0,1,1-2.78-2.79A2.78,2.78,0,0,1,724.75,597.14Z" fill="#0071f2"/><path d="M733.91,597.14a2.79,2.79,0,1,1-2.78-2.79A2.79,2.79,0,0,1,733.91,597.14Z" fill="#0071f2"/><path d="M743.09,597.14a2.79,2.79,0,1,1-2.79-2.79A2.79,2.79,0,0,1,743.09,597.14Z" fill="#0071f2"/><path d="M706.41,605.48a2.79,2.79,0,1,1-2.79-2.79A2.79,2.79,0,0,1,706.41,605.48Z" fill="#0071f2"/><path d="M715.58,605.48a2.79,2.79,0,1,1-2.79-2.79A2.79,2.79,0,0,1,715.58,605.48Z" fill="#0071f2"/><path d="M724.75,605.48a2.79,2.79,0,1,1-2.78-2.79A2.78,2.78,0,0,1,724.75,605.48Z" fill="#0071f2"/><path d="M733.91,605.48a2.79,2.79,0,1,1-2.78-2.79A2.79,2.79,0,0,1,733.91,605.48Z" fill="#0071f2"/><path d="M743.09,605.48a2.79,2.79,0,1,1-2.79-2.79A2.79,2.79,0,0,1,743.09,605.48Z" fill="#0071f2"/><circle cx="703.63" cy="613.83" r="2.79" fill="#0071f2"/><path d="M715.58,613.83a2.79,2.79,0,1,1-2.79-2.79A2.79,2.79,0,0,1,715.58,613.83Z" fill="#0071f2"/><circle cx="721.97" cy="613.83" r="2.79" fill="#0071f2"/><path d="M733.91,613.83a2.79,2.79,0,1,1-2.78-2.79A2.79,2.79,0,0,1,733.91,613.83Z" fill="#0071f2"/><path d="M743.09,613.83A2.79,2.79,0,1,1,740.3,611,2.79,2.79,0,0,1,743.09,613.83Z" fill="#0071f2"/><rect x="695.58" y="594.35" width="1.6" height="22.25" fill="#fff"/><rect x="603.53" y="548.82" width="143.88" height="33.23" opacity="0.2"/><rect x="609.58" y="554.3" width="81.9" height="2.8" fill="#fff"/><rect x="609.58" y="559.17" width="81.9" height="2.8" fill="#fff"/><rect x="609.58" y="564.03" width="81.9" height="2.8" fill="#fff"/><rect x="609.58" y="568.9" width="81.9" height="2.8" fill="#fff"/><rect x="609.58" y="573.75" width="81.9" height="2.8" fill="#fff"/><path d="M706.41,557.09a2.79,2.79,0,1,1-2.79-2.79A2.79,2.79,0,0,1,706.41,557.09Z" fill="#0071f2"/><path d="M715.58,557.09a2.79,2.79,0,1,1-2.79-2.79A2.79,2.79,0,0,1,715.58,557.09Z" fill="#0071f2"/><path d="M724.75,557.09A2.79,2.79,0,1,1,722,554.3,2.78,2.78,0,0,1,724.75,557.09Z" fill="#0071f2"/><path d="M733.91,557.09a2.79,2.79,0,1,1-2.78-2.79A2.79,2.79,0,0,1,733.91,557.09Z" fill="#0071f2"/><path d="M743.09,557.09a2.79,2.79,0,1,1-2.79-2.79A2.79,2.79,0,0,1,743.09,557.09Z" fill="#0071f2"/><path d="M706.41,565.46a2.79,2.79,0,1,1-2.79-2.79A2.78,2.78,0,0,1,706.41,565.46Z" fill="#0071f2"/><path d="M715.58,565.46a2.79,2.79,0,1,1-2.79-2.79A2.78,2.78,0,0,1,715.58,565.46Z" fill="#0071f2"/><path d="M724.75,565.46a2.79,2.79,0,1,1-2.78-2.79A2.77,2.77,0,0,1,724.75,565.46Z" fill="#0071f2"/><path d="M733.91,565.46a2.79,2.79,0,1,1-2.78-2.79A2.78,2.78,0,0,1,733.91,565.46Z" fill="#0071f2"/><path d="M743.09,565.46a2.79,2.79,0,1,1-2.79-2.79A2.78,2.78,0,0,1,743.09,565.46Z" fill="#0071f2"/><path d="M706.41,573.82a2.79,2.79,0,1,1-2.79-2.79A2.79,2.79,0,0,1,706.41,573.82Z" fill="#0071f2"/><path d="M715.58,573.82a2.79,2.79,0,1,1-2.79-2.79A2.79,2.79,0,0,1,715.58,573.82Z" fill="#0071f2"/><path d="M724.75,573.82A2.79,2.79,0,1,1,722,571,2.78,2.78,0,0,1,724.75,573.82Z" fill="#0071f2"/><path d="M733.91,573.82a2.79,2.79,0,1,1-2.78-2.79A2.79,2.79,0,0,1,733.91,573.82Z" fill="#0071f2"/><path d="M743.09,573.82A2.79,2.79,0,1,1,740.3,571,2.79,2.79,0,0,1,743.09,573.82Z" fill="#0071f2"/><rect x="695.58" y="554.3" width="1.6" height="22.25" fill="#fff"/><rect x="603.53" y="508.77" width="143.88" height="33.23" opacity="0.2"/><rect x="609.58" y="514.27" width="81.9" height="2.8" fill="#fff"/><rect x="609.58" y="519.12" width="81.9" height="2.8" fill="#fff"/><rect x="609.58" y="523.98" width="81.9" height="2.8" fill="#fff"/><rect x="609.58" y="528.85" width="81.9" height="2.8" fill="#fff"/><rect x="609.58" y="533.71" width="81.9" height="2.8" fill="#fff"/><circle cx="703.63" cy="517.04" r="2.79" fill="#0071f2"/><path d="M715.58,517a2.79,2.79,0,1,1-2.79-2.79A2.79,2.79,0,0,1,715.58,517Z" fill="#0071f2"/><circle cx="721.97" cy="517.04" r="2.79" fill="#0071f2"/><path d="M733.91,517a2.79,2.79,0,1,1-2.78-2.79A2.79,2.79,0,0,1,733.91,517Z" fill="#0071f2"/><path d="M743.09,517a2.79,2.79,0,1,1-2.79-2.79A2.79,2.79,0,0,1,743.09,517Z" fill="#0071f2"/><path d="M706.41,525.39a2.79,2.79,0,1,1-2.79-2.79A2.79,2.79,0,0,1,706.41,525.39Z" fill="#0071f2"/><path d="M715.58,525.39a2.79,2.79,0,1,1-2.79-2.79A2.79,2.79,0,0,1,715.58,525.39Z" fill="#0071f2"/><path d="M724.75,525.39A2.79,2.79,0,1,1,722,522.6,2.78,2.78,0,0,1,724.75,525.39Z" fill="#0071f2"/><path d="M733.91,525.39a2.79,2.79,0,1,1-2.78-2.79A2.79,2.79,0,0,1,733.91,525.39Z" fill="#0071f2"/><path d="M743.09,525.39a2.79,2.79,0,1,1-2.79-2.79A2.79,2.79,0,0,1,743.09,525.39Z" fill="#0071f2"/><path d="M706.41,533.73a2.79,2.79,0,1,1-2.79-2.79A2.79,2.79,0,0,1,706.41,533.73Z" fill="#0071f2"/><path d="M715.58,533.73a2.79,2.79,0,1,1-2.79-2.79A2.79,2.79,0,0,1,715.58,533.73Z" fill="#0071f2"/><path d="M724.75,533.73a2.79,2.79,0,1,1-2.78-2.79A2.78,2.78,0,0,1,724.75,533.73Z" fill="#0071f2"/><path d="M733.91,533.73a2.79,2.79,0,1,1-2.78-2.79A2.79,2.79,0,0,1,733.91,533.73Z" fill="#0071f2"/><path d="M743.09,533.73a2.79,2.79,0,1,1-2.79-2.79A2.79,2.79,0,0,1,743.09,533.73Z" fill="#0071f2"/><rect x="695.58" y="514.27" width="1.6" height="22.25" fill="#fff"/><rect x="603.53" y="468.72" width="143.88" height="33.23" opacity="0.2"/><rect x="609.58" y="474.22" width="81.9" height="2.8" fill="#fff"/><rect x="609.58" y="479.07" width="81.9" height="2.8" fill="#fff"/><rect x="609.58" y="483.93" width="81.9" height="2.8" fill="#fff"/><rect x="609.58" y="488.8" width="81.9" height="2.8" fill="#fff"/><rect x="609.58" y="493.66" width="81.9" height="2.8" fill="#fff"/><path d="M706.41,477a2.79,2.79,0,1,1-2.79-2.79A2.79,2.79,0,0,1,706.41,477Z" fill="#0071f2"/><path d="M715.58,477a2.79,2.79,0,1,1-2.79-2.79A2.79,2.79,0,0,1,715.58,477Z" fill="#0071f2"/><path d="M724.75,477A2.79,2.79,0,1,1,722,474.2,2.78,2.78,0,0,1,724.75,477Z" fill="#0071f2"/><path d="M733.91,477a2.79,2.79,0,1,1-2.78-2.79A2.79,2.79,0,0,1,733.91,477Z" fill="#0071f2"/><path d="M743.09,477a2.79,2.79,0,1,1-2.79-2.79A2.79,2.79,0,0,1,743.09,477Z" fill="#0071f2"/><circle cx="703.63" cy="485.34" r="2.79" fill="#0071f2"/><path d="M715.58,485.34a2.79,2.79,0,1,1-2.79-2.79A2.79,2.79,0,0,1,715.58,485.34Z" fill="#0071f2"/><circle cx="721.97" cy="485.34" r="2.79" fill="#0071f2"/><path d="M733.91,485.34a2.79,2.79,0,1,1-2.78-2.79A2.79,2.79,0,0,1,733.91,485.34Z" fill="#0071f2"/><path d="M743.09,485.34a2.79,2.79,0,1,1-2.79-2.79A2.79,2.79,0,0,1,743.09,485.34Z" fill="#0071f2"/><circle cx="703.63" cy="493.68" r="2.79" fill="#0071f2"/><path d="M715.58,493.68a2.79,2.79,0,1,1-2.79-2.79A2.78,2.78,0,0,1,715.58,493.68Z" fill="#0071f2"/><circle cx="721.97" cy="493.68" r="2.79" fill="#0071f2"/><path d="M733.91,493.68a2.79,2.79,0,1,1-2.78-2.79A2.78,2.78,0,0,1,733.91,493.68Z" fill="#0071f2"/><path d="M743.09,493.68a2.79,2.79,0,1,1-2.79-2.79A2.78,2.78,0,0,1,743.09,493.68Z" fill="#0071f2"/><rect x="695.58" y="474.22" width="1.6" height="22.25" fill="#fff"/><rect x="603.53" y="428.67" width="143.88" height="33.23" opacity="0.2"/><rect x="609.58" y="434.17" width="81.9" height="2.8" fill="#fff"/><rect x="609.58" y="439.03" width="81.9" height="2.8" fill="#fff"/><rect x="609.58" y="443.88" width="81.9" height="2.8" fill="#fff"/><rect x="609.58" y="448.75" width="81.9" height="2.8" fill="#fff"/><rect x="609.58" y="453.61" width="81.9" height="2.8" fill="#fff"/><circle cx="703.63" cy="436.95" r="2.79" fill="#0071f2"/><path d="M715.58,437a2.79,2.79,0,1,1-2.79-2.78A2.79,2.79,0,0,1,715.58,437Z" fill="#0071f2"/><circle cx="721.97" cy="436.95" r="2.79" fill="#0071f2"/><path d="M733.91,437a2.79,2.79,0,1,1-2.78-2.78A2.79,2.79,0,0,1,733.91,437Z" fill="#0071f2"/><path d="M743.09,437a2.79,2.79,0,1,1-2.79-2.78A2.79,2.79,0,0,1,743.09,437Z" fill="#0071f2"/><circle cx="703.63" cy="445.29" r="2.79" fill="#0071f2"/><path d="M715.58,445.29a2.79,2.79,0,1,1-2.79-2.79A2.79,2.79,0,0,1,715.58,445.29Z" fill="#0071f2"/><circle cx="721.97" cy="445.29" r="2.79" fill="#0071f2"/><path d="M733.91,445.29a2.79,2.79,0,1,1-2.78-2.79A2.79,2.79,0,0,1,733.91,445.29Z" fill="#0071f2"/><path d="M743.09,445.29a2.79,2.79,0,1,1-2.79-2.79A2.79,2.79,0,0,1,743.09,445.29Z" fill="#0071f2"/><path d="M706.41,453.64a2.79,2.79,0,1,1-2.79-2.79A2.79,2.79,0,0,1,706.41,453.64Z" fill="#0071f2"/><path d="M715.58,453.64a2.79,2.79,0,1,1-2.79-2.79A2.79,2.79,0,0,1,715.58,453.64Z" fill="#0071f2"/><path d="M724.75,453.64a2.79,2.79,0,1,1-2.78-2.79A2.78,2.78,0,0,1,724.75,453.64Z" fill="#0071f2"/><path d="M733.91,453.64a2.79,2.79,0,1,1-2.78-2.79A2.79,2.79,0,0,1,733.91,453.64Z" fill="#0071f2"/><path d="M743.09,453.64a2.79,2.79,0,1,1-2.79-2.79A2.79,2.79,0,0,1,743.09,453.64Z" fill="#0071f2"/><rect x="695.58" y="434.17" width="1.6" height="22.25" fill="#fff"/><rect x="603.53" y="388.62" width="143.88" height="33.23" opacity="0.2"/><rect x="609.58" y="394.12" width="81.9" height="2.8" fill="#fff"/><rect x="609.58" y="398.98" width="81.9" height="2.8" fill="#fff"/><rect x="609.58" y="403.85" width="81.9" height="2.8" fill="#fff"/><rect x="609.58" y="408.7" width="81.9" height="2.8" fill="#fff"/><rect x="609.58" y="413.56" width="81.9" height="2.8" fill="#fff"/><path d="M706.41,396.9a2.79,2.79,0,1,1-2.79-2.78A2.79,2.79,0,0,1,706.41,396.9Z" fill="#0071f2"/><path d="M715.58,396.9a2.79,2.79,0,1,1-2.79-2.78A2.79,2.79,0,0,1,715.58,396.9Z" fill="#0071f2"/><path d="M724.75,396.9a2.79,2.79,0,1,1-2.78-2.78A2.78,2.78,0,0,1,724.75,396.9Z" fill="#0071f2"/><path d="M733.91,396.9a2.79,2.79,0,1,1-2.78-2.78A2.79,2.79,0,0,1,733.91,396.9Z" fill="#0071f2"/><path d="M743.09,396.9a2.79,2.79,0,1,1-2.79-2.78A2.79,2.79,0,0,1,743.09,396.9Z" fill="#0071f2"/><path d="M706.41,405.24a2.79,2.79,0,1,1-2.79-2.79A2.79,2.79,0,0,1,706.41,405.24Z" fill="#0071f2"/><path d="M715.58,405.24a2.79,2.79,0,1,1-2.79-2.79A2.79,2.79,0,0,1,715.58,405.24Z" fill="#0071f2"/><path d="M724.75,405.24a2.79,2.79,0,1,1-2.78-2.79A2.78,2.78,0,0,1,724.75,405.24Z" fill="#0071f2"/><path d="M733.91,405.24a2.79,2.79,0,1,1-2.78-2.79A2.79,2.79,0,0,1,733.91,405.24Z" fill="#0071f2"/><path d="M743.09,405.24a2.79,2.79,0,1,1-2.79-2.79A2.79,2.79,0,0,1,743.09,405.24Z" fill="#0071f2"/><path d="M706.41,413.59a2.79,2.79,0,1,1-2.79-2.79A2.79,2.79,0,0,1,706.41,413.59Z" fill="#0071f2"/><path d="M715.58,413.59a2.79,2.79,0,1,1-2.79-2.79A2.79,2.79,0,0,1,715.58,413.59Z" fill="#0071f2"/><path d="M724.75,413.59A2.79,2.79,0,1,1,722,410.8,2.78,2.78,0,0,1,724.75,413.59Z" fill="#0071f2"/><path d="M733.91,413.59a2.79,2.79,0,1,1-2.78-2.79A2.79,2.79,0,0,1,733.91,413.59Z" fill="#0071f2"/><path d="M743.09,413.59a2.79,2.79,0,1,1-2.79-2.79A2.79,2.79,0,0,1,743.09,413.59Z" fill="#0071f2"/><rect x="695.58" y="394.12" width="1.6" height="22.25" fill="#fff"/><rect x="603.53" y="348.59" width="143.88" height="33.23" opacity="0.2"/><rect x="609.58" y="354.06" width="81.9" height="2.8" fill="#fff"/><rect x="609.58" y="358.93" width="81.9" height="2.8" fill="#fff"/><rect x="609.58" y="363.79" width="81.9" height="2.8" fill="#fff"/><rect x="609.58" y="368.66" width="81.9" height="2.8" fill="#fff"/><rect x="609.58" y="373.51" width="81.9" height="2.8" fill="#fff"/><path d="M706.41,356.85a2.79,2.79,0,1,1-2.79-2.79A2.79,2.79,0,0,1,706.41,356.85Z" fill="#0071f2"/><path d="M715.58,356.85a2.79,2.79,0,1,1-2.79-2.79A2.79,2.79,0,0,1,715.58,356.85Z" fill="#0071f2"/><path d="M724.75,356.85a2.79,2.79,0,1,1-2.78-2.79A2.78,2.78,0,0,1,724.75,356.85Z" fill="#0071f2"/><path d="M733.91,356.85a2.79,2.79,0,1,1-2.78-2.79A2.79,2.79,0,0,1,733.91,356.85Z" fill="#0071f2"/><path d="M743.09,356.85a2.79,2.79,0,1,1-2.79-2.79A2.79,2.79,0,0,1,743.09,356.85Z" fill="#0071f2"/><path d="M706.41,365.2a2.79,2.79,0,1,1-2.79-2.79A2.79,2.79,0,0,1,706.41,365.2Z" fill="#0071f2"/><path d="M715.58,365.2a2.79,2.79,0,1,1-2.79-2.79A2.79,2.79,0,0,1,715.58,365.2Z" fill="#0071f2"/><path d="M724.75,365.2a2.79,2.79,0,1,1-2.78-2.79A2.78,2.78,0,0,1,724.75,365.2Z" fill="#0071f2"/><path d="M733.91,365.2a2.79,2.79,0,1,1-2.78-2.79A2.79,2.79,0,0,1,733.91,365.2Z" fill="#0071f2"/><path d="M743.09,365.2a2.79,2.79,0,1,1-2.79-2.79A2.79,2.79,0,0,1,743.09,365.2Z" fill="#0071f2"/><path d="M706.41,373.54a2.79,2.79,0,1,1-2.79-2.79A2.79,2.79,0,0,1,706.41,373.54Z" fill="#0071f2"/><path d="M715.58,373.54a2.79,2.79,0,1,1-2.79-2.79A2.79,2.79,0,0,1,715.58,373.54Z" fill="#0071f2"/><path d="M724.75,373.54a2.79,2.79,0,1,1-2.78-2.79A2.78,2.78,0,0,1,724.75,373.54Z" fill="#0071f2"/><path d="M733.91,373.54a2.79,2.79,0,1,1-2.78-2.79A2.79,2.79,0,0,1,733.91,373.54Z" fill="#0071f2"/><path d="M743.09,373.54a2.79,2.79,0,1,1-2.79-2.79A2.79,2.79,0,0,1,743.09,373.54Z" fill="#0071f2"/><rect x="695.58" y="354.06" width="1.6" height="22.25" fill="#fff"/><rect x="603.53" y="308.54" width="143.88" height="33.23" opacity="0.2"/><rect x="609.58" y="314.03" width="81.9" height="2.8" fill="#fff"/><rect x="609.58" y="318.88" width="81.9" height="2.8" fill="#fff"/><rect x="609.58" y="323.74" width="81.9" height="2.8" fill="#fff"/><rect x="609.58" y="328.61" width="81.9" height="2.8" fill="#fff"/><rect x="609.58" y="333.47" width="81.9" height="2.8" fill="#fff"/><path d="M706.41,316.8a2.79,2.79,0,1,1-2.79-2.79A2.79,2.79,0,0,1,706.41,316.8Z" fill="#0071f2"/><path d="M715.58,316.8a2.79,2.79,0,1,1-2.79-2.79A2.79,2.79,0,0,1,715.58,316.8Z" fill="#0071f2"/><path d="M724.75,316.8A2.79,2.79,0,1,1,722,314,2.78,2.78,0,0,1,724.75,316.8Z" fill="#0071f2"/><path d="M733.91,316.8a2.79,2.79,0,1,1-2.78-2.79A2.79,2.79,0,0,1,733.91,316.8Z" fill="#0071f2"/><path d="M743.09,316.8A2.79,2.79,0,1,1,740.3,314,2.79,2.79,0,0,1,743.09,316.8Z" fill="#0071f2"/><circle cx="703.63" cy="325.15" r="2.79" fill="#0071f2"/><path d="M715.58,325.15a2.79,2.79,0,1,1-2.79-2.79A2.79,2.79,0,0,1,715.58,325.15Z" fill="#0071f2"/><circle cx="721.97" cy="325.15" r="2.79" fill="#0071f2"/><path d="M733.91,325.15a2.79,2.79,0,1,1-2.78-2.79A2.79,2.79,0,0,1,733.91,325.15Z" fill="#0071f2"/><path d="M743.09,325.15a2.79,2.79,0,1,1-2.79-2.79A2.79,2.79,0,0,1,743.09,325.15Z" fill="#0071f2"/><path d="M706.41,333.49a2.79,2.79,0,1,1-2.79-2.79A2.79,2.79,0,0,1,706.41,333.49Z" fill="#0071f2"/><path d="M715.58,333.49a2.79,2.79,0,1,1-2.79-2.79A2.79,2.79,0,0,1,715.58,333.49Z" fill="#0071f2"/><path d="M724.75,333.49A2.79,2.79,0,1,1,722,330.7,2.78,2.78,0,0,1,724.75,333.49Z" fill="#0071f2"/><path d="M733.91,333.49a2.79,2.79,0,1,1-2.78-2.79A2.79,2.79,0,0,1,733.91,333.49Z" fill="#0071f2"/><path d="M743.09,333.49a2.79,2.79,0,1,1-2.79-2.79A2.79,2.79,0,0,1,743.09,333.49Z" fill="#0071f2"/><rect x="695.58" y="314.03" width="1.6" height="22.25" fill="#fff"/><rect x="534.27" y="280.88" width="189.66" height="10.54" fill="#2f2e41"/><rect x="534.27" y="280.88" width="189.66" height="10.54" fill="#fff" opacity="0.2"/><rect x="514.99" y="498.68" width="21.18" height="47.85" fill="#2f2e41"/><rect x="514.99" y="597.16" width="21.18" height="22.21" fill="#2f2e41"/><rect x="364.93" y="443.79" width="37.03" height="37.03" fill="#2f2e41"/><circle cx="383.44" cy="462.29" r="12.37" opacity="0.2"/><rect x="378.39" y="457.3" width="2.79" height="10.2" fill="#fff"/><rect x="386.14" y="457.3" width="2.79" height="10.2" fill="#fff"/><g id="b6aaaa30-74c7-4e86-bfdf-671de532198b" data-name="freepik--Device--inject-34"><polygon points="657.3 280.88 542.07 280.88 533.14 202.62 648.38 202.62 657.3 280.88" fill="#a6a6a6"/><polygon points="651.02 275.64 547.15 275.64 539.43 207.87 643.3 207.87 651.02 275.64" fill="#fff"/><polygon points="586.87 243.52 585.21 245.5 568.87 231.39 570.53 229.41 586.87 243.52" fill="#0071f2"/><polygon points="582.66 229.41 584.95 231.39 573.08 245.5 570.8 243.52 582.66 229.41" fill="#0071f2"/><polygon points="621.8 243.52 620.15 245.5 603.81 231.39 605.47 229.41 621.8 243.52" fill="#0071f2"/><polygon points="617.6 229.41 619.88 231.39 608.02 245.5 605.73 243.52 617.6 229.41" fill="#0071f2"/><polygon points="566.78 257.08 566.34 254.29 629.67 254.29 630.11 257.08 566.78 257.08" fill="#0071f2"/><rect x="542.87" y="275.64" width="148.24" height="5.26" fill="#a6a6a6"/><rect x="575.08" y="275.64" width="128.56" height="5.26" fill="#c7c7c7"/><polygon points="643.68 211.16 643.3 207.87 539.43 207.87 539.81 211.16 643.68 211.16" fill="#2f2e41"/><path d="M548.17,209.52a.9.9,0,0,0,.82.81.68.68,0,0,0,.66-.69s0-.08,0-.12a.88.88,0,0,0-.83-.83.69.69,0,0,0-.65.71A.49.49,0,0,0,548.17,209.52Z" fill="#c7c7c7"/><path d="M545.16,209.52a.9.9,0,0,0,.84.81.69.69,0,0,0,.65-.72s0-.06,0-.09a.9.9,0,0,0-.82-.83.7.7,0,0,0-.67.73S545.16,209.49,545.16,209.52Z" fill="#fff"/><path d="M542.16,209.52a.9.9,0,0,0,.83.81.67.67,0,0,0,.65-.69.49.49,0,0,0,0-.12.88.88,0,0,0-.82-.83.69.69,0,0,0-.66.71S542.16,209.48,542.16,209.52Z" fill="#0071f2"/></g><path d="M427.87,620.92c-14.36,0-29.47-.36-41.65-.65l-4.37-.1c-13.92-.33-20.45-7.4-20.75-14.26s5.66-14.57,17.62-15.9c9.39-1,17.56-.54,25.46-.07,10.46.64,20.33,1.24,32.71-1.5a21.34,21.34,0,0,0,4.26-1.29c-5.16-2.59-31.86-5.47-55.45-2-33.56,5-47.29,5.87-63.85,4.16a1.75,1.75,0,0,1-1.56-1.92,1.73,1.73,0,0,1,1.92-1.56c16.22,1.67,29.75.78,63-4.14a180.76,180.76,0,0,1,38.68-1.14c20.49,1.58,21.13,5,21.34,6.14.54,2.93-3.52,4.24-7.57,5.14-12.85,2.84-23.44,2.2-33.67,1.58-7.76-.47-15.77-1-24.86,0-9.83,1.09-14.74,7-14.51,12.26.21,4.86,4.88,10.63,17.33,10.92l4.37.1c25.72.61,64.58,1.54,81.22-1.27,16.16-2.72,17.93-9.79,21.08-31.7,3.11-21.72,9.24-37.06,17.26-43.22a24.11,24.11,0,0,1,18-4.5,1.75,1.75,0,0,1-.52,3.47A20.52,20.52,0,0,0,508,543.38c-7.25,5.57-12.91,20.11-15.89,40.91-2.91,20.24-4.51,31.39-24,34.67C459.13,620.47,444,620.92,427.87,620.92Z" fill="#2f2e41"/><path d="M426.65,631.93c-22.95,0-46.8-1.42-56.39-3.47-10-2.14-21.83-9.08-26-15.77-5.37-.43-11.47-1.1-18.36-2a1.75,1.75,0,1,1,.46-3.47c5.1.67,10.8,1.36,16.47,1.85a5.67,5.67,0,0,1-.07-.82c0-1.75.69-4.9,6.06-6.3,10.54-2.75,26.78-1.71,28.94,3.13.35.78.85,2.81-2.07,4.74-4.48,3-12.86,4-26.76,3.21,4.33,4.7,13.27,10.13,22,12,16.74,3.59,77.47,5.21,99.43.6,21.26-4.47,21.72-19.81,22.31-39.23.56-18.39,2.26-44.19,7.17-62.65,5-18.87,23.5-19.23,23.69-19.23h0a1.76,1.76,0,0,1,0,3.51c-.64,0-16,.38-20.32,16.62-4.83,18.14-6.51,43.65-7.06,61.85-.58,19.29-1.14,37.52-25.09,42.55C461.45,631.09,444.31,631.93,426.65,631.93Zm-80.13-22.58c11.66.83,22.6.63,27.27-2.46a3.44,3.44,0,0,0,.68-.55c-1.72-1.82-14.05-3.8-24.74-1-3.48.91-3.45,2.36-3.44,2.84A4.1,4.1,0,0,0,346.52,609.35Z" fill="#2f2e41"/><path d="M585.17,664.47c-4.56,0-8.48-.77-11.33-3-1.63-1.27-2.25-2.58-1.84-3.9.9-2.9,6.21-3.35,16.31-4,4.17-.25,10.86-.65,13-1.51-4-3.06-28.75-8.14-67.16-5.87-29.57,1.74-36.15.78-39-1.89a4.89,4.89,0,0,1-1.55-3.67,3.47,3.47,0,0,1,1-2.56c1.56-1.57,4.39-1.54,7.67-1.51,3.46,0,7.38.06,8.15-1.93s.53-3.66.14-5.85c-.58-3.3-1.3-7.41,1.22-14.73,4.51-13.09,16.37-12.19,16.49-12.18a1.75,1.75,0,1,1-.32,3.49c-.36,0-9.26-.62-12.86,9.83-2.23,6.46-1.62,9.92-1.08,13,.43,2.44.84,4.74-.32,7.73-1.66,4.25-7.08,4.2-11.45,4.16-1.74,0-4.65,0-5.16.48a1.51,1.51,0,0,0,.45,1.19c2.62,2.43,16.46,2.14,36.44,1,37.37-2.21,67.3,2.44,70.79,8a2.77,2.77,0,0,1,.12,2.88c-1.32,2.38-6,2.9-16.37,3.52-4.3.26-10.56.63-12.71,1.44l.18.14c4.82,3.74,15.42,2,25.67.34A133.22,133.22,0,0,1,618.91,657c15.71-.43,19.25,3.18,19.8,3.9a1.75,1.75,0,0,1-2.74,2.19c-.18-.17-3.4-3-17-2.59a133.74,133.74,0,0,0-16.77,2C596.16,663.5,590.26,664.47,585.17,664.47Z" fill="#2f2e41"/><rect x="225.49" y="576.53" width="23.7" height="15.35" fill="#f9b499"/><rect x="310.26" y="569.52" width="23.53" height="23.53" fill="#f9b499"/><path d="M244.19,602.86l-14.76-.77a1.54,1.54,0,0,1-1.54-1.53l-4-13.42a1.53,1.53,0,0,1,1.53-1.54h23.39a1.54,1.54,0,0,1,1.53,1.54l-4.6,14.18A1.54,1.54,0,0,1,244.19,602.86Z" fill="#2f2e41"/><rect x="307.72" y="586.44" width="28.07" height="16.75" fill="#2f2e41"/><path d="M406.56,304.28s7.62,3.92,18.41,10l10.94,11.57a1.46,1.46,0,0,0,1.89.2h0a1.45,1.45,0,0,0,.39-2l-5.51-8.39a.28.28,0,0,1,.39-.38l13.62,9.55a1.57,1.57,0,0,0,2-.13h0a1.58,1.58,0,0,0,0-2.32l-11.65-11a.28.28,0,0,1,.31-.45l18.54,8.69a2,2,0,0,0,2.62-1h0a2,2,0,0,0-.74-2.46l-15.94-10.07a.4.4,0,0,1,.3-.73l14.73,3a2,2,0,0,0,2.35-1.92h0a2,2,0,0,0-1.2-1.81l-27.57-11.59a.36.36,0,0,1,0-.67c2.69-.85,10.4-3.54,12.89-7.13,0,0,1.85-4.39-5.4-1,0,0-22.61,8.71-24.62,5.87C413.33,290.13,408.23,297,406.56,304.28Z" fill="#f9b499"/><path d="M406.56,304.28l6.4,3.38s3.08-15.21,5.69-17.37c0,0-3.65,1-5.32-.16C413.33,290.13,409.37,294.9,406.56,304.28Z" fill="#f7a48b"/><path d="M181.8,337.33S176,343.61,167.91,353l-6.33,14.62a1.46,1.46,0,0,1-1.71.83h0a1.47,1.47,0,0,1-1-1.75l2.31-9.76a.28.28,0,0,0-.5-.22l-9.53,13.63a1.59,1.59,0,0,1-1.92.55h0a1.6,1.6,0,0,1-.8-2.18l7.21-14.28a.28.28,0,0,0-.44-.32l-14.46,14.5a2,2,0,0,1-2.79,0h0a2,2,0,0,1-.15-2.57l11.54-14.9a.4.4,0,0,0-.53-.59L136,358.37a2,2,0,0,1-2.87-1h0a2,2,0,0,1,.51-2.11l21.95-20.31a.36.36,0,0,0-.25-.62c-2.82.12-11,.23-14.55-2.3,0,0-3.24-3.49,4.72-2.8,0,0,24.23.47,25.15-2.88C170.61,326.34,177.75,331,181.8,337.33Z" fill="#f9b499"/><path d="M181.8,337.33l-4.86,5.37s-8.08-13.26-11.27-14.39c0,0,3.78-.28,4.94-2C170.61,326.34,176,329.47,181.8,337.33Z" fill="#f7a48b"/><path d="M406.24,307.7a2.36,2.36,0,0,1-3.46,1.67l-25-13.55c-34.66-20.62-48.7-43.12-48.7-43.12,8.76,26.68,4,79.65,4,79.65-1,0-1.94,0-2.87,0-29.05-.76-35.77-24.69-35.77-24.69-12.13,33-41,39.46-53.09,40.71a46.74,46.74,0,0,1-5.46.31l-1.59-74.08c-.4,3.58-16.34,27.88-16.34,27.88l-32,35a2.6,2.6,0,0,1-4-.17c-2.87-3.83-9.48-8.34-13.29-10.76a3.19,3.19,0,0,1-.88-4.53l20.61-29.19a21.13,21.13,0,0,0,2.34-4.31C199.63,266.46,219,201,219,201c2.83-9.09,9.92-15.28,16.85-19.32A63.35,63.35,0,0,1,252.41,175l53.77-1.18c11.88,2.07,19.56,6.84,24.41,11.5,6.06,5.8,7.75,11.42,7.75,11.42l29.58,61.11,45.41,32.26A47.66,47.66,0,0,0,406.24,307.7Z" fill="#0071f2"/><path d="M330.59,185.34c-6,6.91-9.58,21.75-9.58,21.75l-11.34-12.2c-.9,23.05-15.55,56.71-15.55,56.71C289.93,237,270.17,222,270.17,222c-11.72-9.86-17.76-25.27-17.76-25.27l-9.06,10-7.47-25.1v0A63.35,63.35,0,0,1,252.41,175l53.77-1.18C318.06,175.91,325.74,180.68,330.59,185.34Z" opacity="0.2"/><polygon points="252.41 175.03 264.52 169.5 302.81 173.63 306.18 173.83 291.05 224.02 252.41 175.03" fill="#fff"/><path d="M270.17,142.69v22l12.61,8.84s4.71,6.18,4.71,11.78h1.77s.29-10.31,2.94-13l4.13-6.19,6.48-16.79-28.58-11Z" fill="#f9b499"/><path d="M270.17,142.69v13.77s14.37,12.23,23.95,13l2.21-3.32v-13L271.7,141.07Z" fill="#f7a48b"/><path d="M270.17,163.24l-7.84,8.69a4.09,4.09,0,0,0,.05,5.55l15.35,16.39a3.2,3.2,0,0,0,5.42-1.3l3.42-11.95-3.79-7.07-12.61-8.84Z" fill="#0071f2"/><path d="M289.64,180.59l5.43,7.68a1.17,1.17,0,0,0,2.05-.25l5.24-13.32a2.53,2.53,0,0,0-.19-2.21L298,165.65l-1.69.53-4.13,6.19S290.33,174.21,289.64,180.59Z" fill="#0071f2"/><path d="M289.64,180.59l5.43,7.68a1.17,1.17,0,0,0,2.05-.25l5.24-13.32a2.53,2.53,0,0,0-.19-2.21L298,165.65l-1.69.53-4.13,6.19S290.33,174.21,289.64,180.59Z" fill="#fff" opacity="0.4"/><path d="M270.17,163.24l-7.84,8.69a4.09,4.09,0,0,0,.05,5.55l15.35,16.39a3.2,3.2,0,0,0,5.42-1.3l3.42-11.95-3.79-7.07-12.61-8.84Z" fill="#fff" opacity="0.4"/><path d="M343.21,577.4l-34.93-2.21a1.51,1.51,0,0,1-1.42-1.38l-17.3-199.73L255.31,581.33a2.2,2.2,0,0,1-2.18,1.85H224.25a2.21,2.21,0,0,1-2.21-2.39l11.79-142,7.51-90.38c12.09-1.25,41-7.75,53.09-40.71,0,0,6.72,23.93,35.77,24.69l.81,13.44,13.81,230A1.52,1.52,0,0,1,343.21,577.4Z" fill="#2f2e41"/><path d="M331,345.79c-17.16,2.89-34.18-8.26-34.18-8.26-12.35-4-7.27,36.55-7.27,36.55l-5.35,32.31c-9,38.2-50.38,32.36-50.38,32.36l7.51-90.38c12.09-1.25,41-7.75,53.09-40.71,0,0,6.72,23.93,35.77,24.69Z" opacity="0.2"/><ellipse cx="294.12" cy="125.23" rx="24.3" ry="40.95" fill="#f9b499"/><path d="M314.89,94.29h3.53c-3.53,18.28-32.1,12.09-32.1,12.09,2.94,3.23,7.8,4.13,7.8,4.13a26,26,0,0,1-17.52-6.18h0l-2,29.75-4.8,3.54,1.48,11.78c-9.06-5.2-13.79-14.14-16.24-22.36a64.83,64.83,0,0,1-2.62-18.88c-.2-6.29,1.18-10.29,3.11-12.81a11.28,11.28,0,0,1,9.85-4.28c1.05-7,4.69-10.22,8.71-11.43a20.59,20.59,0,0,1,9.72-.17,27.18,27.18,0,0,1,4.64,1.47c6.58,2.56,30,3.36,30,3.36C318.13,91.06,314.89,94.29,314.89,94.29Z" fill="#2f2e41"/><path d="M314.89,94.29h3.53c-18.48,11.34-30.74,3.21-30.74,3.21a33.13,33.13,0,0,0,30.69-13.14s.05,0,.05,0C318.1,91.09,314.89,94.29,314.89,94.29Z" opacity="0.2"/><path d="M274.61,134.07l-4.8,3.54,1.48,11.78c-9.06-5.2-13.79-14.14-16.24-22.36,0,0,5.1-11.57,17.41-3,0,0,.7-3.93,1.46-12.31v-9.24l2.67,1.87Z" opacity="0.2"/><path d="M271.09,94.43H260.67c2,3.07,1.19,10.25,1.19,10.25a11.25,11.25,0,0,0-6.32-9.34,11.28,11.28,0,0,1,9.85-4.28c1.05-7,4.69-10.22,8.71-11.43C268.74,84.87,271.09,94.43,271.09,94.43Z" opacity="0.2"/><ellipse cx="268.19" cy="134.07" rx="6.33" ry="8.84" transform="translate(-23.19 63.38) rotate(-12.92)" fill="#f9b499"/><path d="M246.71,644.28c-8.78.94-19.39-1.36-19.39-1.36-17.4-7.48-4.11-30.12-1.51-34.24a2.64,2.64,0,0,0,.53-1.47,23.37,23.37,0,0,0-2.48-8.57c-1.14-3.16.16-4.26,1.73-4.59a6.43,6.43,0,0,1,4.69,1.22c2.84,1.89,7.11,2,10.27,1.71a20.72,20.72,0,0,0,5.95-1.63,4,4,0,0,1,1.26-.31c3.19-.11,2.59,6.21,2,9.93a11.23,11.23,0,0,0,.5,5.63l7.57,21.58C260,640.49,254,643.49,246.71,644.28Z" fill="#0071f2"/><path d="M246.71,644.28h0c10.54-5.36,6.32-14.76,6.32-14.76l-5.24-15c-1-8.63-7.41-8.63-7.41-8.63,5.75,0,7.41-10.88,7.41-10.88,3.19-.11,2.59,6.21,2,9.93a11.23,11.23,0,0,0,.5,5.63l7.57,21.58C260,640.49,254,643.49,246.71,644.28Z" opacity="0.2"/><path d="M353.15,635.64a218.06,218.06,0,0,1-24.75-12.07s-23.71,4.72-23.7-7.22v-12s-.44-13,7.85-7.7a18.6,18.6,0,0,0,18.57.16s5.73-4.09,11.17,4.51c0,0,10.86,11.78,20.07,13.44,0,0,8.17-.25,12.3,4.92a11.27,11.27,0,0,1,2.34,7.15S378.21,642.14,353.15,635.64Z" fill="#0071f2"/><path d="M353.15,635.64a218.06,218.06,0,0,1-24.75-12.07s-23.71,4.72-23.7-7.22v-2.44s51.62,13.46,70,5.82a11.27,11.27,0,0,1,2.34,7.15S378.21,642.14,353.15,635.64Z" opacity="0.2"/><g id="ff8d4da4-0b24-49a3-838f-4658152fa4c6" data-name="freepik--Texts--inject-34"><path d="M361.86,173.92V156.75h2.71v17.17Z" fill="#2f2e41"/><path d="M371.16,161.84v12.08h-2.71V156.75h2.12l9.82,12.39V156.78h2.73v17.14h-2.24Z" fill="#2f2e41"/><path d="M399.58,159.15h-5.7v14.77h-2.73V159.15h-5.73v-2.38h14.16Z" fill="#2f2e41"/><path d="M413.66,171.53v2.39H401.88V156.75h11.56v2.39h-8.85V164h7.67v2.25h-7.67v5.25Z" fill="#2f2e41"/><path d="M416.46,173.92V156.75h7.43a5,5,0,0,1,2.14.49,5.37,5.37,0,0,1,1.68,1.27,5.88,5.88,0,0,1,1.1,1.79,5.5,5.5,0,0,1,.4,2A5.22,5.22,0,0,1,429,164a5.51,5.51,0,0,1-.68,1.48,4.63,4.63,0,0,1-1.06,1.19,4.14,4.14,0,0,1-1.37.74l4,6.52h-3.06l-3.73-6h-4v6Zm2.71-8.35h4.77a2.23,2.23,0,0,0,1.05-.25,2.52,2.52,0,0,0,.81-.71,3.45,3.45,0,0,0,.48-1.07,3.71,3.71,0,0,0,.19-1.19,3.23,3.23,0,0,0-.23-1.19,3.72,3.72,0,0,0-.59-1,3,3,0,0,0-.87-.69,2.34,2.34,0,0,0-1-.25h-4.62Z" fill="#2f2e41"/><path d="M435.15,161.84v12.08h-2.7V156.75h2.18l9.82,12.39V156.78h2.73v17.14h-2.24Z" fill="#2f2e41"/><path d="M456.1,156.75h2.39l6.77,17.17H462.4l-1.81-4.66H454l-1.79,4.66H449.3Zm3.95,10.5-2.75-7.37-2.86,7.37Z" fill="#2f2e41"/><path d="M467.32,173.92V156.75H470v14.78h9.21v2.39Z" fill="#2f2e41"/><path d="M496.91,160.8a4.31,4.31,0,0,0-.7-.58,6.14,6.14,0,0,0-1.08-.56,8.64,8.64,0,0,0-1.36-.44,6.82,6.82,0,0,0-1.5-.16,4,4,0,0,0-2.53.63,2.07,2.07,0,0,0-.81,1.74,2,2,0,0,0,.25,1,2.5,2.5,0,0,0,.79.69,5.76,5.76,0,0,0,1.34.53c.52.16,1.14.32,1.86.51a20.16,20.16,0,0,1,2.38.69,6.6,6.6,0,0,1,1.78.94,4.15,4.15,0,0,1,1.13,1.37,4.46,4.46,0,0,1,.4,2,5,5,0,0,1-.49,2.25,4.27,4.27,0,0,1-1.36,1.53,5.62,5.62,0,0,1-2,.87,10.19,10.19,0,0,1-2.45.29,12.15,12.15,0,0,1-3.78-.6,10.69,10.69,0,0,1-3.31-1.73l1.2-2.38a4.35,4.35,0,0,0,.9.7,9,9,0,0,0,1.38.72,14.09,14.09,0,0,0,1.7.56,7.73,7.73,0,0,0,1.91.22A4.54,4.54,0,0,0,495,171a1.8,1.8,0,0,0,.87-1.64,1.76,1.76,0,0,0-.33-1.09,2.83,2.83,0,0,0-.93-.76,8.85,8.85,0,0,0-1.47-.59c-.59-.18-1.19-.37-2-.56a19.42,19.42,0,0,1-2.24-.71,5.57,5.57,0,0,1-1.59-.91,3.58,3.58,0,0,1-1-1.19,4.46,4.46,0,0,1-.32-1.73,5,5,0,0,1,.48-2.23,4.62,4.62,0,0,1,1.32-1.65,5.74,5.74,0,0,1,2-1,8.62,8.62,0,0,1,2.47-.35,9,9,0,0,1,3.21.56,11.08,11.08,0,0,1,2.59,1.37Z" fill="#2f2e41"/><path d="M513.36,171.53v2.39H501.59V156.75h11.56v2.39H504.3V164H512v2.25H504.3v5.25Z" fill="#2f2e41"/><path d="M516.11,173.92V156.75h7.48a4.89,4.89,0,0,1,2.13.49,5.37,5.37,0,0,1,1.68,1.27,5.88,5.88,0,0,1,1.1,1.79,5.32,5.32,0,0,1,.37,2,5.52,5.52,0,0,1-.25,1.66,5.81,5.81,0,0,1-.67,1.48,4.67,4.67,0,0,1-1.07,1.19,4.24,4.24,0,0,1-1.37.74l4,6.52h-3.06l-3.72-6h-4v6Zm2.7-8.35h4.78a2.29,2.29,0,0,0,1-.25,2.75,2.75,0,0,0,.81-.71,3.18,3.18,0,0,0,.52-1,3.76,3.76,0,0,0,.2-1.19,3.28,3.28,0,0,0-.23-1.2,3.8,3.8,0,0,0-.6-1,3,3,0,0,0-.87-.69,2.18,2.18,0,0,0-1-.25h-4.6Z" fill="#2f2e41"/><path d="M532.77,156.75,538,170.52l5.15-13.77H546l-6.87,17.17h-2.39l-6.88-17.17Z" fill="#2f2e41"/><path d="M559.89,171.53v2.39H548.08V156.75h11.56v2.39h-8.86V164h7.67v2.25h-7.67v5.25Z" fill="#2f2e41"/><path d="M562.65,173.92V156.75h7.48a5,5,0,0,1,2.14.49,5.37,5.37,0,0,1,1.68,1.27,5.88,5.88,0,0,1,1.1,1.79,5.5,5.5,0,0,1,.4,2,5.22,5.22,0,0,1-.25,1.66,5.48,5.48,0,0,1-.67,1.48,4.84,4.84,0,0,1-1.07,1.19,4.24,4.24,0,0,1-1.37.74l4,6.52H573l-3.72-6h-4v6Zm2.71-8.35h4.77a2.23,2.23,0,0,0,1-.25,2.52,2.52,0,0,0,.81-.71,3.54,3.54,0,0,0,.53-1,3.75,3.75,0,0,0,.19-1.19,3.28,3.28,0,0,0-.23-1.2,3.66,3.66,0,0,0-.59-1,3,3,0,0,0-.87-.69,2.25,2.25,0,0,0-1-.25h-4.6Z" fill="#2f2e41"/><path d="M444.27,196.81v3.48h-12V183.13H444.1v3.48h-7.88v3.33H443v3.22h-6.76v3.65Z" fill="#2f2e41"/><path d="M446.69,200.29V183.13h7.73a5,5,0,0,1,2.24.5,6.18,6.18,0,0,1,1.83,1.38,6.63,6.63,0,0,1,1.19,1.86,5.43,5.43,0,0,1,.42,2.1,6.13,6.13,0,0,1-.19,1.54,6.39,6.39,0,0,1-.55,1.39,6,6,0,0,1-.88,1.19,5.15,5.15,0,0,1-1.2.88l3.77,6.38h-4.47l-3.28-5.53h-2.59v5.53Zm4-9h3.58a1.5,1.5,0,0,0,1.19-.67,2.72,2.72,0,0,0,.52-1.7,2.41,2.41,0,0,0-.59-1.7,1.69,1.69,0,0,0-1.19-.62h-3.51Z" fill="#2f2e41"/><path d="M462.89,200.29V183.13h7.73a5,5,0,0,1,2.24.5,6.26,6.26,0,0,1,3,3.2,5.4,5.4,0,0,1,.43,2.1,6.2,6.2,0,0,1-.2,1.54,6.31,6.31,0,0,1-.55,1.38,5.39,5.39,0,0,1-.88,1.19,5.1,5.1,0,0,1-1.19.88l3.78,6.39h-4.48l-3.29-5.54h-2.61v5.54Zm4-9h3.58a1.5,1.5,0,0,0,1.19-.67,2.72,2.72,0,0,0,.52-1.7,2.41,2.41,0,0,0-.59-1.7,1.69,1.69,0,0,0-1.25-.62h-3.46Z" fill="#2f2e41"/><path d="M486.61,200.44a8.06,8.06,0,0,1-3.49-.75,8.82,8.82,0,0,1-2.68-2,9.18,9.18,0,0,1-1.73-2.79,8.84,8.84,0,0,1-.61-3.25,8.43,8.43,0,0,1,.63-3.25,8.7,8.7,0,0,1,4.51-4.69,8.28,8.28,0,0,1,3.44-.71,8.19,8.19,0,0,1,3.48.74,8.37,8.37,0,0,1,2.68,2,8.9,8.9,0,0,1,1.72,2.8,8.63,8.63,0,0,1,0,6.45,9,9,0,0,1-1.78,2.77,8.63,8.63,0,0,1-2.71,1.92A8.14,8.14,0,0,1,486.61,200.44Zm-4.48-8.71a6.64,6.64,0,0,0,.29,1.93,5.42,5.42,0,0,0,.86,1.65,4.31,4.31,0,0,0,1.42,1.19,4.16,4.16,0,0,0,1.93.43,4.05,4.05,0,0,0,3.39-1.66,5.44,5.44,0,0,0,.83-1.67,7.08,7.08,0,0,0,.28-1.89,6.52,6.52,0,0,0-.29-1.92,4.94,4.94,0,0,0-.87-1.65,4.33,4.33,0,0,0-1.42-1.13,4.57,4.57,0,0,0-3.89,0,4.37,4.37,0,0,0-1.41,1.19,5.41,5.41,0,0,0-.84,1.66,7,7,0,0,0-.28,1.87Z" fill="#2f2e41"/><path d="M497.46,200.29V183.13h7.74a4.92,4.92,0,0,1,2.23.5,5.84,5.84,0,0,1,1.78,1.34,6.16,6.16,0,0,1,1.19,1.86,5.58,5.58,0,0,1,.42,2.1,6.19,6.19,0,0,1-.19,1.54,6.34,6.34,0,0,1-.56,1.38,4.9,4.9,0,0,1-.88,1.19,5.15,5.15,0,0,1-1.2.88l3.77,6.39h-4.47L504,194.77h-2.57v5.54Zm4-9H505a1.5,1.5,0,0,0,1.19-.67,2.72,2.72,0,0,0,.52-1.7,2.5,2.5,0,0,0-.59-1.7,1.72,1.72,0,0,0-1.25-.62h-3.45Z" fill="#2f2e41"/><path d="M385.39,38.62V65.11a17.93,17.93,0,0,1,7.8-6.1,16.15,16.15,0,0,1,6.23-1.09q12.22,0,18.07,8.57,5,7.4,5,20.88V114q0,13.7-8.67,22.47A28,28,0,0,1,393,144.9,26.27,26.27,0,0,1,372.69,136a29.47,29.47,0,0,1-7.77-20.68v-3l17.81-1.34.39,4.24q.7,7.38,6,9.85a7.51,7.51,0,0,0,3.36.79q11.42,0,11.41-11.93V83.72a11.49,11.49,0,0,0-4-9,7.61,7.61,0,0,0-5.25-1.67,8,8,0,0,0-7.32,3.85,13.58,13.58,0,0,0-2,7.08v3.35H366.78V19.9h54.47V38.62Z" fill="#0071f2"/><path d="M497.17,115.35a29.54,29.54,0,0,1-50.37,20.83,28.34,28.34,0,0,1-8.59-20.83V48A29.52,29.52,0,0,1,488.63,27.1,28.6,28.6,0,0,1,497.2,48Zm-19.3-67.77a10.73,10.73,0,0,0-10.73-10.74h0A10.22,10.22,0,0,0,459.6,40a10.39,10.39,0,0,0-3.1,7.59v67.47a10.39,10.39,0,0,0,3.1,7.59,10.22,10.22,0,0,0,7.54,3.15,10.73,10.73,0,0,0,10.73-10.74Z" fill="#0071f2"/><path d="M572.23,115.35a29.5,29.5,0,0,1-59,0V48A29.54,29.54,0,0,1,563.67,27.1,28.59,28.59,0,0,1,572.23,48ZM552.92,47.58a10.74,10.74,0,0,0-10.74-10.74h0A10.18,10.18,0,0,0,534.64,40a10.47,10.47,0,0,0-3.1,7.59v67.47a10.39,10.39,0,0,0,3.1,7.59,10.22,10.22,0,0,0,7.54,3.15,10.74,10.74,0,0,0,10.74-10.74Z" fill="#0071f2"/></g></svg>