<svg id="ad7357c5-ce22-4747-a922-a88378cae841" data-name="Layer 1" xmlns="http://www.w3.org/2000/svg" width="865.76" height="682.89" viewBox="0 0 865.76 682.89"><path d="M409.25,170.68s-10-1.23-10,31.2c0,0-1.44,19,3.16,28.89,0,0,2.75,1.49,3.93-4.13C406.33,226.64,414.84,170.61,409.25,170.68Z" fill="#0071f2"/><path d="M409.25,170.68s-10-1.23-10,31.2c0,0-1.44,19,3.16,28.89,0,0,2.75,1.49,3.93-4.13C406.33,226.64,414.84,170.61,409.25,170.68Z" fill="#fff" opacity="0.2"/><path d="M462.59,609.79l-12.82-29.5,23-11,8.64,28.9S469.74,608,462.59,609.79Z" fill="#f9b499"/><polygon points="301.38 575.23 305.25 598.17 325.81 594 325.81 565.99 301.38 575.23" fill="#f9b499"/><path d="M277,337.74s-.6,120.38,21.45,221.1c0,0,12.59.85,37-21.79l-1.61-210.19L436.07,567.78s24.43-3.58,35.16-22.65c0,0-73.9-241.95-87.61-272.94L277,321.05Z" fill="#2f2e41"/><path d="M228.81,207.41s23.44-35.15,50.52-33.16c0,0,2.89-5.76-6.36-9.93C272.05,164.55,242.62,174.25,228.81,207.41Z" fill="#0071f2"/><path d="M228.81,207.41s23.44-35.15,50.52-33.16c0,0,2.89-5.76-6.36-9.93C272.05,164.55,242.62,174.25,228.81,207.41Z" opacity="0.2"/><path d="M369.84,129.12l39.41,41.56s-9.24-1.59-9.83,30.59c0,0-.3,21.15,3,29.5,0,0-14.31-7.45-22.35-17.29,0,0,12.21,51.85,17.28,58.71,0,0-28,6.55-49.76,25,0,0-57.21,37.84-76.88,28l3.58-121.58-46.79,3.87s27.84-39.7,51.08-33.55l2.56-20.38s5.82-15.76,11.63-22.21S369.84,129.12,369.84,129.12Z" fill="#0071f2"/><path d="M301.31,124s-7.68,1.27-8.87,8.72L291,155.38v29.5s11.93-1.19,30.4,3c0,0,39.63,12.22,53.93,6.55,0,0,7.77-69-13.4-70.4s-1.56-1.81-1.56-1.81Z" fill="#0071f2"/><path d="M315.13,89.67l-1.55,40.08s20.88,36.06,22.66,42.32l10.43-22.65s11.55-18.55,2.39-30.39l-1-7.92S326.53,123.22,315.13,89.67Z" fill="#f9b499"/><circle cx="321.35" cy="153.59" r="1.79" fill="#2f2e41"/><circle cx="326.31" cy="162.53" r="1.79" fill="#3f3d56"/><circle cx="331.02" cy="172.46" r="1.79" fill="#3f3d56"/><polygon points="232.01 207.15 224.5 230.67 249.54 205.7 232.01 207.15" fill="#f9b499"/><path d="M284.05,146.46l12.29,17.62a10.32,10.32,0,0,1,1.52,8.56c-5,19-28.06,65.18-28.06,65.18-25,49.66-42.32,38.54-42.32,38.54s-18.47-11.52-3-45.69l53.64-56.42s2.78-4-5.17-8.34c0,0-16.68-7.95-16.29-16.49l1.47-12.62a8.91,8.91,0,0,1,6.6-7.75c2.29-.54,5.1-.19,8.22,2.33l14.1,8.79Z" fill="#f9b499"/><path d="M399.6,229.19s-18.31-21.67-22.83-58.51,1.27,34.52,3.28,42.8C380.05,213.48,385.88,221,399.6,229.19Z" opacity="0.2"/><path d="M240.9,371.27s7-3.76,14-41.36c0,0-1.21,15.3,5.73,15.79a5.16,5.16,0,0,0,5.28-4.65c.57-4.51.18-13.55-7.31-27l14.58-72.17-2.45,83.35s18.66,10.19,76.88-28c0,0-31.35,34.92-70.62,40.52v11.51l-6.51,8.59-4.3-5.91S249,371.81,240.9,371.27Z" fill="#e6e7e8"/><path d="M229,277.42s-18.17,34.4-7.15,56.15c0,0,17.89,31.14,19.08,37.7,0,0,15.78-37.9,28.9-133.45C269.8,237.82,249.83,280.87,229,277.42Z" fill="#e6e7e8"/><path d="M228.81,205.7s2.55-15.46,8.21-19.63c0,0-7-42,21.54-51.1l-1.29,13.88a9.53,9.53,0,0,0,1.9,6.66c2.15,2.81,6.25,6.79,13.8,10.4C273,165.91,251.85,175.17,228.81,205.7Z" fill="#e6e7e8"/><path d="M269.53,129.37s1.46-3,11-1.58c0,0,11.94-11.51,21-5.59a6.05,6.05,0,0,0-.16,1,6.56,6.56,0,0,0,0,.86,14.13,14.13,0,0,0-3.62,1.36,10.4,10.4,0,0,0-4.94,6l-5.68,8.79Z" fill="#e6e7e8"/><rect x="276.4" y="146.91" width="1.39" height="5.92" transform="translate(-17.64 261.09) rotate(-49.08)" fill="#f7ab94"/><path d="M295.73,163.34a5.31,5.31,0,0,1-8.7,4.73c-4.53-3.83-9-10.33-6.21-20.14,0,0,1.49-9.24,7.45,0C288.27,147.93,294.62,155.18,295.73,163.34Z" fill="#e6e7e8"/><path d="M315.88,255.47c-20-14.13-28.24-40.32-23.71-75.75a216.31,216.31,0,0,1,13-49.65l1.28.54c-.38.9-37.22,90.27,10.24,123.73Z" fill="#2f2e41"/><path d="M382.3,244l-.72-.7c16.09-16.69,8.92-30.69.07-39.5A49.41,49.41,0,0,0,358.92,191a86.41,86.41,0,0,1-14.43,24.57,26.59,26.59,0,0,1-13.93,9.06c-7.12,1.79-12.53-.21-15.65-5.79a17.06,17.06,0,0,1-.7-15.07c3.41-7.84,12.25-16.86,35-15.32a55.42,55.42,0,0,1,9.07,1.37c10.49-28.49,2.09-53.66,2-54l1-.32c.11.33,8.59,25.76-2,54.55A50.35,50.35,0,0,1,382.36,203C391.52,212.16,399,226.67,382.3,244Zm-38-54.63c-18.59,0-26.12,7.92-29.14,14.89a16.06,16.06,0,0,0,.65,14.18c2.92,5.22,7.81,7,14.53,5.31A25.66,25.66,0,0,0,343.72,215a85.37,85.37,0,0,0,14.22-24.17,54,54,0,0,0-8.78-1.31C347.45,189.37,345.82,189.32,344.27,189.32Z" fill="#2f2e41"/><path d="M316.41,254.2h.86a1.1,1.1,0,0,1,1.1,1.1V265a0,0,0,0,1,0,0h-3.05a0,0,0,0,1,0,0V255.3A1.1,1.1,0,0,1,316.41,254.2Z" fill="#0071f2"/><path d="M316.41,254.2h.86a1.1,1.1,0,0,1,1.1,1.1V265a0,0,0,0,1,0,0h-3.05a0,0,0,0,1,0,0V255.3A1.1,1.1,0,0,1,316.41,254.2Z" fill="#2f2e41"/><circle cx="320.75" cy="266.92" r="2.43" fill="#f1f2f2"/><rect x="535.59" y="140.17" width="8.42" height="521.17" fill="#ccc"/><rect x="435.06" y="49.74" width="221.69" height="93.38" rx="7.48" fill="#ccc"/><rect x="435.06" y="49.74" width="221.69" height="93.38" rx="7.48" opacity="0.2"/><path d="M455.43,648.23s6.31-27.8,3.73-46.32l6.41-1.59,12-2.15s19.07,52.84,77.88,47.68v4.37Z" fill="#0071f2"/><path d="M553,655.38H457.92a2.49,2.49,0,0,1-2.49-2.49v-4.66l100,2v2.67A2.49,2.49,0,0,1,553,655.38Z" fill="#2f2e41"/><path d="M485.53,582.48s-14.72,2.72-7.95,15.69c0,0,17.93,53.1,77.88,47.68h0a5,5,0,0,0-4.58-5C536.38,639.7,492,632.05,485.53,582.48Z" fill="#2f2e41"/><path d="M305.55,614.3s-12-12.87-1-20.46c0,0,33.61-9.57,25.27,13.47,0,0-5.29,15.89,1.33,23.84,0,0,8.2,16.29,7,20.66,0,0-16.68-16.69-40.92-1.59C297.21,650.22,298,627.66,305.55,614.3Z" fill="#0071f2"/><path d="M295.84,655.28a15.72,15.72,0,0,1,1.37-5.06s21.31-16.2,40.92,1.59c0,0,3.58,7.55-2,9.53-4.35,1.55-25.63.68-34.76.23A5.84,5.84,0,0,1,295.84,655.28Z" fill="#2f2e41"/><path d="M298,577l-3.67-14.68a2.44,2.44,0,0,1,2-3c5.58-.79,19.43-4.65,39.45-23.09a1.66,1.66,0,0,1,2.79,1.08L340.35,559a1.66,1.66,0,0,1-.49,1.32c-3.49,3.35-22.59,20.83-39.74,18.52A2.48,2.48,0,0,1,298,577Z" fill="#2f2e41"/><path d="M298,577l-3.67-14.68a2.44,2.44,0,0,1,2-3c5.58-.79,19.43-4.65,39.45-23.09a1.66,1.66,0,0,1,2.79,1.08L340.35,559a1.66,1.66,0,0,1-.49,1.32c-3.49,3.35-22.59,20.83-39.74,18.52A2.48,2.48,0,0,1,298,577Z" opacity="0.2"/><path d="M439.85,583l-6.79-15a1.8,1.8,0,0,1,1.47-2.55c6.57-.63,24.35-3.8,35.9-19.85a1.81,1.81,0,0,1,3.12.29l6.87,14.92a1.8,1.8,0,0,1-.14,1.78c-2.87,4.18-16.54,22.2-38.83,21.54A1.84,1.84,0,0,1,439.85,583Z" fill="#2f2e41"/><path d="M439.85,583l-6.79-15a1.8,1.8,0,0,1,1.47-2.55c6.57-.63,24.35-3.8,35.9-19.85a1.81,1.81,0,0,1,3.12.29l6.87,14.92a1.8,1.8,0,0,1-.14,1.78c-2.87,4.18-16.54,22.2-38.83,21.54A1.84,1.84,0,0,1,439.85,583Z" fill="#2f2e41"/><rect x="431.89" y="44.98" width="221.69" height="93.38" rx="7.48" fill="#ccc"/><path d="M451.89,62a63.54,63.54,0,0,1,13-1.36c8.77,0,15,2.82,19.15,8.16s6.66,12.91,6.66,23.49-2.38,19.42-6.8,25.44-11.71,9.41-20.9,9.41a72.24,72.24,0,0,1-11.08-.77ZM458,119.9a27.92,27.92,0,0,0,6.17.49c13,0,20.13-10.1,20.13-27.77.07-15.43-6.24-25.24-19.14-25.24a25.7,25.7,0,0,0-7.16.87Z" fill="#0071f2"/><path d="M539,93.21c0,22.52-9.89,34.46-22,34.46-12.48,0-21.25-13.4-21.25-33.2,0-20.78,9.33-34.37,22-34.37C530.63,60.1,539,73.79,539,93.21Zm-36.67,1.06c0,14,5.46,26.51,15.07,26.51s15.15-12.33,15.15-27.19c0-13-4.91-26.6-15.08-26.6S502.31,79.9,502.31,94.27Z" fill="#0071f2"/><path d="M546.9,126.6V61.17h6.66l15.15,33.1a216,216,0,0,1,8.48,21.26l.14-.09c-.56-8.74-.7-16.7-.7-26.89V61.17h5.75V126.6h-6.17l-15-33.2c-3.29-7.28-6.45-14.76-8.83-21.84l-.21.09c.35,8.25.49,16.12.49,27v28Z" fill="#0071f2"/><path d="M617.51,95.92H599.13v23.59h20.48v7.09H593V61.17h25.53v7.08H599.13V88.93h18.38Z" fill="#0071f2"/><path d="M626.13,121.65c0-3.5,1.75-6,4.14-6s4.13,2.52,4.13,6-1.61,6-4.13,6S626.13,125.05,626.13,121.65Zm1.75-13.88-1-46.6h6.73l-1,46.6Z" fill="#0071f2"/><path d="M404.34,174.25,445.69,214a10.44,10.44,0,0,0,9,2.76c13.57-2.34,49.78-9.25,64.56-18.29a8.88,8.88,0,0,0,4-5.82c.9-4.38,3.07-11.95,7.8-15.24a22.91,22.91,0,0,0,4.8-7.46,3.47,3.47,0,0,1,3.26-2.37h0a3.41,3.41,0,0,1,3.43,3.27c.11,2.79-.35,7.27-7,13.63v40.27s-5.66-2.64-8.34-5c0,0-46.9,28.37-81.54,31.93a9.24,9.24,0,0,1-5.65-1.24c-7.23-4.3-28-17.15-39.73-29.53C400.33,220.9,396.08,188.67,404.34,174.25Z" fill="#f9b499"/><path d="M346.67,149.42l11,6a55,55,0,0,0,5.05-28.62,6.45,6.45,0,0,0-2.43-4.56c-2.59-2-7.12-4.75-11.26-3.17C349.06,119,358.58,130.38,346.67,149.42Z" fill="#0071f2"/><path d="M346.67,149.42l11,6a55,55,0,0,0,5.05-28.62,6.45,6.45,0,0,0-2.43-4.56c-2.59-2-7.12-4.75-11.26-3.17C349.06,119,358.58,130.38,346.67,149.42Z" fill="#fff" opacity="0.2"/><path d="M310.62,149.42A41.88,41.88,0,0,1,301.31,124a6.61,6.61,0,0,1,3.67-6.15l9.23-4.52-.63,16.41s7.11,12.47,7.74,13.6S310.62,149.42,310.62,149.42Z" fill="#0071f2"/><path d="M310.62,149.42A41.88,41.88,0,0,1,301.31,124a6.61,6.61,0,0,1,3.67-6.15l9.23-4.52-.63,16.41s7.11,12.47,7.74,13.6S310.62,149.42,310.62,149.42Z" fill="#fff" opacity="0.2"/><circle cx="316.84" cy="268.45" r="3.73" fill="#2f2e41"/><circle cx="377.52" cy="242.84" r="2.43" fill="#f1f2f2"/><circle cx="380.5" cy="245.61" r="3.73" fill="#2f2e41"/><rect x="539.76" y="184.3" width="15.79" height="6.56" rx="2.36" transform="translate(-31.19 180.44) rotate(-18.2)" fill="#f7ab94"/><rect x="531.78" y="197.59" width="28.25" height="6.56" rx="2.36" transform="translate(-35.43 180.55) rotate(-18.2)" fill="#f7ab94"/><rect x="529.69" y="206.38" width="28.25" height="6.56" rx="2.36" fill="#f7ab94"/><rect x="529.69" y="214.68" width="23.19" height="6.56" rx="2.36" fill="#f7ab94"/><path d="M315.13,89.67l-.37,9.57s10.13,24.32,33.93,16.87l-.66-6.46Z" fill="#f7ab94"/><ellipse cx="339.18" cy="77.27" rx="25.6" ry="36.07" fill="#f9b499"/><path d="M321.16,52.64a33.15,33.15,0,0,1-5.12,21s-1.3-4.45-11.68-7.68C304.36,65.92,313.58,56.07,321.16,52.64Z" fill="#2f2e41"/><path d="M321.32,51.43s3.6,13.07,19.39,19c0,0-14.45-11.64-14.08-20.72Z" fill="#2f2e41"/><path d="M329.71,48.34s11,14.81,32,11.76a46.77,46.77,0,0,1,2.83,12.15s9.27-3.58,5.69-17c0,0,5.67-3.4,6.56-6.92,0,0-7.79,3-14.93-7.14C361.84,41.2,349.69,40.53,329.71,48.34Z" fill="#2f2e41"/><ellipse cx="309.01" cy="74.93" rx="6.99" ry="10.13" transform="translate(0.05 150.04) rotate(-27.29)" fill="#f9b499"/><path d="M304.36,65.92s-4.78-20.61,10.81-36.15a28.35,28.35,0,0,1,25.05-8.07c8.07,1.5,17.83,6.3,24.55,19.5C364.77,41.2,329.27,39.48,304.36,65.92Z" fill="#0071f2"/><path d="M353.24,27.24s-19.3-.11-40.24,16.35c0,0,29-13.5,44.7-12.49A24.47,24.47,0,0,0,353.24,27.24Z" opacity="0.2"/></svg>