<svg id="f6c15c6b-0d43-4c3e-97ea-25ec8b04d58e" data-name="Layer 1" xmlns="http://www.w3.org/2000/svg" width="865.76" height="682.89" viewBox="0 0 865.76 682.89"><g id="ac8342b2-1fe9-4e48-9097-aa23177b80f6" data-name="freepik--background-complete--inject-5"><rect x="19.45" y="574.82" width="826.87" height="0.41" fill="#ebebeb"/><rect x="708.69" y="601.43" width="54.77" height="0.41" fill="#ebebeb"/><rect x="552.83" y="605.93" width="14.37" height="0.41" fill="#ebebeb"/><rect x="675.3" y="586.08" width="31.74" height="0.41" fill="#ebebeb"/><rect x="106.2" y="588.86" width="71.43" height="0.41" fill="#ebebeb"/><rect x="192.36" y="588.86" width="10.47" height="0.41" fill="#ebebeb"/><rect x="236.86" y="595.84" width="154.92" height="0.41" fill="#ebebeb"/><path d="M411.38,501.07H92.06a9.44,9.44,0,0,1-9.42-9.45V42.75a9.44,9.44,0,0,1,9.42-9.36H411.38a9.45,9.45,0,0,1,9.45,9.44h0V491.62A9.45,9.45,0,0,1,411.38,501.07ZM92.06,33.72a9,9,0,0,0-9,9V491.62a9,9,0,0,0,9,9H411.38a9,9,0,0,0,9-9V42.75a9,9,0,0,0-9-9Z" fill="#ebebeb"/><path d="M769.1,501.07H449.77a9.47,9.47,0,0,1-9.45-9.45V42.75a9.47,9.47,0,0,1,9.45-9.36H769.1a9.44,9.44,0,0,1,9.41,9.36V491.62A9.45,9.45,0,0,1,769.1,501.07ZM449.77,33.72a9,9,0,0,0-9,9V491.62a9,9,0,0,0,9,9H769.1a9,9,0,0,0,9-9V42.75a9,9,0,0,0-9-9Z" fill="#ebebeb"/><rect x="171.64" y="415.19" width="209.07" height="14.75" fill="#ebebeb"/><rect x="289.8" y="415.19" width="90.91" height="14.75" fill="#e0e0e0"/><rect x="171.64" y="429.94" width="30.89" height="144.88" fill="#ebebeb"/><polygon points="202.53 444.89 171.64 434.37 171.64 429.94 202.53 429.94 202.53 444.89" fill="#e0e0e0"/><rect x="349.81" y="429.94" width="30.89" height="144.88" fill="#e0e0e0"/><rect x="289.8" y="429.94" width="30.89" height="144.88" fill="#ebebeb"/><polygon points="320.68 444.89 289.8 434.37 289.8 429.94 320.68 429.94 320.68 444.89" fill="#e0e0e0"/><rect x="231.65" y="429.94" width="30.89" height="144.88" fill="#e0e0e0"/><rect x="136.86" y="86.59" width="263.49" height="224.36" fill="#ebebeb"/><rect x="400.35" y="86.57" width="2.94" height="224.36" fill="#e0e0e0"/><rect x="146.8" y="96.49" width="243.65" height="204.52" fill="#f5f5f5"/><path d="M265.67,270c14.89-49.61,19-122.79,50.67-112.7s-9.8,118.29-9.8,118.29Z" fill="#fff"/><path d="M291.24,272.44c-15.15-71.91-11.33-167.36-58.39-165.18s0,168.3,0,168.3Z" fill="#fff"/><path d="M324.5,264.37h-103a8,8,0,0,0-8.27,7.62c-2.1,47.46,5.67,95.92,20.15,143.2h78.9c14.47-47.37,22.24-95.74,20.14-143.2A7.94,7.94,0,0,0,324.5,264.37Z" fill="#ebebeb"/><rect x="553.09" y="111.61" width="5.8" height="463.21" fill="#e0e0e0"/><rect x="689.51" y="111.61" width="5.8" height="463.21" fill="#e0e0e0"/><rect x="511.93" y="111.61" width="5.8" height="463.21" fill="#ebebeb"/><rect x="648.35" y="111.61" width="5.8" height="463.21" fill="#ebebeb"/><rect x="511.93" y="108.43" width="183.38" height="6.33" fill="#ebebeb"/><rect x="511.93" y="221.86" width="183.38" height="6.33" fill="#ebebeb"/><rect x="511.93" y="335.29" width="183.38" height="6.33" fill="#ebebeb"/><rect x="511.93" y="448.72" width="183.38" height="6.33" fill="#ebebeb"/><rect x="511.93" y="562.15" width="183.38" height="6.33" fill="#ebebeb"/><rect x="654.15" y="108.43" width="41.16" height="6.33" fill="#e0e0e0"/><rect x="654.15" y="221.86" width="41.16" height="6.33" fill="#e0e0e0"/><rect x="654.15" y="335.29" width="41.16" height="6.33" fill="#e0e0e0"/><rect x="654.15" y="448.72" width="41.16" height="6.33" fill="#e0e0e0"/><rect x="654.15" y="562.15" width="41.16" height="6.33" fill="#e0e0e0"/><path d="M585.9,147v-8.93h-22V147a10.56,10.56,0,0,1-10.55,10.56h0a10.57,10.57,0,0,0-10.57,10.55v53.78H607V168.13a10.57,10.57,0,0,0-10.57-10.55h0A10.56,10.56,0,0,1,585.9,147Z" fill="#f0f0f0"/><rect x="534.92" y="298.42" width="96.61" height="36.89" fill="#f0f0f0"/><rect x="631.53" y="298.4" width="16.82" height="36.89" fill="#e6e6e6"/><rect x="631.53" y="314.82" width="16.82" height="4.07" fill="#ebebeb"/><rect x="534.92" y="314.82" width="96.61" height="4.07" fill="#f5f5f5"/><rect x="530.19" y="496.93" width="75.46" height="65.22" fill="#f0f0f0"/><rect x="605.65" y="496.95" width="13.13" height="65.22" fill="#e6e6e6"/><rect x="605.65" y="525.95" width="13.13" height="7.19" fill="#ebebeb"/><rect x="530.19" y="525.95" width="75.46" height="7.19" fill="#f5f5f5"/><rect x="605.65" y="518.35" width="13.13" height="2.56" fill="#ebebeb"/><rect x="530.19" y="518.35" width="75.46" height="2.56" fill="#f5f5f5"/><rect x="534.92" y="382.41" width="13.66" height="66.32" fill="#f0f0f0"/><rect x="534.92" y="406.04" width="13.66" height="19.05" fill="#fafafa"/><rect x="548.58" y="382.43" width="46.47" height="66.32" fill="#e6e6e6"/><rect x="554.25" y="373.84" width="15.43" height="74.88" fill="#ebebeb"/><rect x="554.25" y="397.64" width="15.43" height="11.53" fill="#fafafa"/><rect x="554.25" y="416.89" width="15.43" height="11.53" fill="#fafafa"/><rect x="569.7" y="373.84" width="52.47" height="74.88" fill="#e0e0e0"/><rect x="578.54" y="382.41" width="8.32" height="66.32" fill="#f0f0f0"/><rect x="579.97" y="390.81" width="5.46" height="49.51" fill="#fafafa"/><rect x="586.85" y="382.43" width="28.26" height="66.32" fill="#e6e6e6"/><rect x="599.68" y="378.92" width="9.39" height="69.8" fill="#ebebeb"/><rect x="599.68" y="401.1" width="9.39" height="10.75" fill="#fafafa"/><rect x="599.68" y="419.06" width="9.39" height="10.75" fill="#fafafa"/><rect x="609.07" y="378.92" width="31.92" height="69.8" fill="#e0e0e0"/><circle cx="590.25" cy="277.84" r="20.57" fill="#f5f5f5"/><circle cx="613.02" cy="284.11" r="14.26" fill="#ebebeb"/></g><g id="a0c9d2e5-e8cb-4080-8960-790801800bd8" data-name="freepik--Shadow--inject-5"><ellipse id="b5bea58b-e3b9-4583-ab0a-705e41636b5d" data-name="freepik--path--inject-5" cx="432.88" cy="630.78" rx="320.64" ry="18.72" fill="#f5f5f5"/></g><path d="M228,502.54H440.41V612.2a10.7,10.7,0,0,1-10.7,10.7h-191A10.7,10.7,0,0,1,228,612.2h0V502.54Z" fill="#d1d3d4"/><path d="M228,502.54H378.31l-18.49-23.67c-2-2.59-7.06-4.69-11.25-4.69H213.4c-4.17,0-5.92,2.1-3.89,4.69Z" fill="#d1d3d4"/><path d="M228,502.54H378.31l-18.49-23.67c-2-2.59-7.06-4.69-11.25-4.69H213.4c-4.17,0-5.92,2.1-3.89,4.69Z" opacity="0.2" style="isolation:isolate"/><path d="M440.41,502.54H290.11l18.49-15.43c2-1.66,7.06-3.06,11.25-3.06H455c4.18,0,5.92,1.37,3.89,3.06Z" fill="#d1d3d4"/><path d="M290.11,502h150.3V611.63a10.7,10.7,0,0,1-10.7,10.7H300.81a10.7,10.7,0,0,1-10.7-10.7h0V502Z" fill="#fff" opacity="0.2" style="isolation:isolate"/><polygon points="246.65 502.54 246.65 577.75 251.85 573.65 255.5 577.75 258.68 573.18 261.94 577.75 266.47 574.33 271.46 577.75 271.46 502.54 246.65 502.54" fill="#fff" opacity="0.5" style="isolation:isolate"/><line x1="280.27" y1="338.47" x2="253.57" y2="316.04" fill="#d1d3d4"/><line x1="294.12" y1="350.1" x2="285.98" y2="343.25" fill="#d1d3d4"/><path d="M374.12,397l88.12-110.12-117.32-98.5L267.19,277.6l-11.57,22.3a6.23,6.23,0,0,0,.42,8.79l.35.29,105.84,88.88A8.77,8.77,0,0,0,374.12,397Z" fill="#d1d3d4"/><polygon points="313.7 315.81 301.01 336.24 306.12 337.35 307.86 342.07 311.25 342.27 312.82 346.32 316.97 347.53 320.16 352.61 332.85 332.19 313.7 315.81" fill="#fff" opacity="0.5" style="isolation:isolate"/><polygon points="458.4 283.52 379.38 371.66 267.14 277.43 344.92 188.25 458.4 283.52" opacity="0.1" style="isolation:isolate"/><polygon points="458.4 283.68 379.38 371.82 412.09 374.24 489.89 285.05 458.4 283.68" fill="#d1d3d4"/><polygon points="458.4 283.68 379.38 371.82 412.09 374.24 489.89 285.05 458.4 283.68" opacity="0.3" style="isolation:isolate"/><polygon points="313.45 187.02 234.42 275.18 267.14 277.6 344.92 188.41 313.45 187.02" fill="#d1d3d4"/><polygon points="313.45 187.02 234.42 275.18 267.14 277.6 344.92 188.41 313.45 187.02" opacity="0.4" style="isolation:isolate"/><polygon points="434.02 310.73 458.35 283.59 344.87 188.32 330.35 223.31 434.02 310.73" opacity="0.1" style="isolation:isolate"/><polygon points="267.14 277.6 344.92 188.41 330.4 223.4 275.63 284.72 267.14 277.6" opacity="0.2" style="isolation:isolate"/><path d="M522.58,124.81c.73,8.76,2.89,24.8,8.07,28.51,0,0-1.22,10.53-19.84,13.23-20.41,3-11.25-8.7-11.25-8.7,10.73-4.3,9.23-12.52,6.15-20l7.87-9C516.61,125.48,522.18,120.32,522.58,124.81Z" fill="#f9b499"/><path d="M537.32,157.6c1.65-1.51-1.66-7.52-3.69-8.37-5.33-2.23-27.11,0-35.29,7a9,9,0,0,0-.65,7.76Z" fill="#0071f2"/><path d="M537.32,157.6c1.65-1.51-1.66-7.52-3.69-8.37-5.33-2.23-27.11,0-35.29,7a9,9,0,0,0-.65,7.76Z" opacity="0.2"/><polygon points="529.1 616.7 515.29 616.7 513.91 584.75 527.72 584.75 529.1 616.7" fill="#f9b499"/><polygon points="626.09 594.88 613.37 599.26 600.17 569.15 612.89 564.77 626.09 594.88" fill="#f9b499"/><path d="M610.34,596.11l14.89-4.55a1.2,1.2,0,0,1,1.4.56L632.84,603a2,2,0,0,1-.79,2.77,1.57,1.57,0,0,1-.42.18c-5.21,1.5-7.81,2-14.32,4-4,1.22-14.14,5.06-19.85,6.2s-7.54-4.32-5.32-5.29c9.92-4.39,14-9.36,16.35-13.23A3.38,3.38,0,0,1,610.34,596.11Z" fill="#0071f2"/><path d="M515.39,615.09h15.06a1.24,1.24,0,0,1,1.18.94l2.73,12.27a2,2,0,0,1-1.51,2.4,2,2,0,0,1-.48,0c-5.44-.08-13.23-.41-20.13-.41-8,0-11.34.44-20.72.44-5.65,0-7.22-5.72-4.86-6.25,10.8-2.36,16.08-2.61,25.4-8.36A6.48,6.48,0,0,1,515.39,615.09Z" fill="#0071f2"/><path d="M555.49,162.11c4,3.69,7.49,7.38,11.1,11.23s6.94,7.84,10.18,12.09a115,115,0,0,1,9.2,13.63,59.81,59.81,0,0,1,3.87,8.17c.28.78.56,1.52.79,2.36a26.15,26.15,0,0,1,.68,2.6l.28,1.37.2,1.52a15.54,15.54,0,0,1,0,4.2,17.56,17.56,0,0,1-2.84,7.35,24.46,24.46,0,0,1-3.81,4.38,44.3,44.3,0,0,1-7.54,5.51,98.56,98.56,0,0,1-14.88,6.93,179.23,179.23,0,0,1-30.07,8.26l-2.89-9.92c9-3.88,18.07-8.08,26.46-12.57A100.57,100.57,0,0,0,568,222a26.64,26.64,0,0,0,4.28-3.8,5.9,5.9,0,0,0,1-1.41c.14-.28,0-.25-.16.35-.12,1.11-.1.25-.36-.35-.09-.28-.24-.66-.38-1s-.34-.78-.52-1.18a51.26,51.26,0,0,0-3-5.24,125.33,125.33,0,0,0-8.27-10.93c-3-3.61-6.25-7.2-9.54-10.72s-6.75-7.08-9.92-10.35Z" fill="#f9b499"/><path d="M533.55,240.22l-13,3.94,8.37,13.76s7.69-3.18,9.39-9.71Z" fill="#ffc3bd"/><polygon points="515.27 249.03 520.4 260.38 528.82 257.93 520.45 244.16 515.27 249.03" fill="#ffc3bd"/><path d="M525,165.85c-1.24,13.23,26.74,33.71,26.74,33.71l26.94-18.44A56.69,56.69,0,0,0,558.83,160C543.38,150.14,526.55,149.41,525,165.85Z" fill="#0071f2"/><path d="M479.19,164.79s-12.09,18.56,16.62,118.08l73-10.78c-1-10.09-13.23-54.1-13.64-102.2a17.21,17.21,0,0,0-17.32-17.08c-.26,0-.52,0-.77,0-2.12.11-4.3.26-6.47.48a272.54,272.54,0,0,0-31,4.58A139.32,139.32,0,0,0,479.19,164.79Z" fill="#0071f2"/><path d="M477.4,196.78l.25-.28L494.81,198c2.62,11.08-6.94,26.19-12,33.2A325.37,325.37,0,0,1,477.4,196.78Z" opacity="0.2" style="isolation:isolate"/><path d="M521.7,279.05s11.85,100.8,20.44,140.29C551.55,462.6,598,580.54,598,580.54l23.16-8s-29.77-88.81-37.67-149.28c-6.07-46.44-14.72-151.17-14.72-151.17Z" fill="#2f2e41"/><path d="M592.05,573.14c-.11,0,4.75,9.92,4.75,9.92l27-8.78-3.18-8.07Z" fill="#2f2e41"/><path d="M528.24,330.76c3.7,28,8.45,61.19,12.61,82.38C547,380.67,548.43,339.68,528.24,330.76Z" opacity="0.3" style="isolation:isolate"/><path d="M495.81,282.87s-9.83,94.69-8.27,136.77c1.55,43.75,22,178.4,22,178.4H532.9s-4.3-132.1-3.31-175.06c1.14-46.85,18.71-147.87,18.71-147.87Z" fill="#2f2e41"/><path d="M505,588.73c-.1,0,1.32,9.69,1.32,9.69h28.43l.77-8.65Z" fill="#2f2e41"/><path d="M491.28,188.05c-2.58,4.1-5.2,7.78-7.91,11.57s-5.56,7.44-8.45,11.08a209.94,209.94,0,0,1-19.13,20.87c-1.86,1.66-3.56,3.31-5.56,4.81l-1.46,1.18-.72.58c-.27.21-.38.33-.93.72a20.8,20.8,0,0,1-5.34,2.75,31,31,0,0,1-9.15,1.65,50.59,50.59,0,0,1-7.88-.34,99.59,99.59,0,0,1-27.7-7.84l2.86-9.92a182.55,182.55,0,0,0,25.5,1.22,50.54,50.54,0,0,0,5.62-.61,13.6,13.6,0,0,0,4-1.26c.4-.21.62-.43.57-.48s.21-.21.36-.36l.56-.52,1.11-1c1.49-1.32,2.9-2.92,4.35-4.38,2.86-3.08,5.71-6.23,8.4-9.59s5.43-6.73,8.07-10.21,5.21-7,7.79-10.51,5.09-7.23,7.48-10.65Z" fill="#f9b499"/><path d="M500.88,183.66c5.56,18.19-26.7,38.35-26.7,38.35l-21-26.7A116.67,116.67,0,0,1,470.57,171C484.84,155.48,496.65,169.82,500.88,183.66Z" fill="#0071f2"/><path d="M404.77,225.77l-17-3.11,1.79,14.68s8.83,5,15.23-2.79Z" fill="#f9b499"/><polygon points="381.24 225.97 384.91 236.57 389.54 237.34 387.75 222.66 381.24 225.97" fill="#f9b499"/><path d="M508,146.33a11.13,11.13,0,0,0-.29-2.31s7.14-.78,10.53-4.66C518.19,139.36,517.18,144.34,508,146.33Z" fill="#f7a48b"/><path d="M520.78,105c3,13.34,5.49,21,.84,29.76-7,13.05-24.94,11.8-31.9-.38-6.27-11-10.2-30.94,1.11-39.93A18.69,18.69,0,0,1,520.78,105Z" fill="#f9b499"/><path d="M494,118.11l-5.08,3.11.48-17.37a15,15,0,0,1-9.19-2.66c1.83-1.75,30.41-11.76,39.32-10,.93-.38,2.06-2.1,2.06-2.1s.34,2.17-1.16,3c1.09-.21,3.82.32,4.58,1.92a5.94,5.94,0,0,0-3.79.22s9.92,1.5,6.4,15.26c-4,15.16-2.64,23.88-2.64,23.88s-7.38,5.7-13.8,4.65C504.31,130.45,494.42,121.38,494,118.11Z" fill="#2f2e41"/><path d="M484.25,99.82c-8.06,0-10.95-3.94-13-7.25,5.79-.61,17.85-4.33,26.79-5s18.76,1,15.8,5S484.25,99.82,484.25,99.82Z" fill="#2f2e41"/><path d="M486,96.23c-6.62-.93-13.07-7.16-8.11-13.13,1.84,4.38,14.23,3.87,23,2,11.58-2.41,19.6,1.49,15.5,9.38C514.18,98.83,486,96.23,486,96.23Z" fill="#2f2e41"/><path d="M501.12,114.16a15.61,15.61,0,0,1-.43,9.92c-1.66,4.15-5.33,3.31-7.25-.28-1.65-3.31-2.91-9.31-.1-12.31S499.92,110.24,501.12,114.16Z" fill="#f9b499"/></svg>