<svg id="a20a5b85-5a9a-43aa-a66d-aa0615f0f864" data-name="Layer 1" xmlns="http://www.w3.org/2000/svg" width="865.76" height="682.89" viewBox="0 0 865.76 682.89"><path d="M132.53,665S32,583.79,43.8,498.55s108.44-14.21,132.1-91.33S112.35,229.33,191.45,159s152.05-3.4,201.35-17.61S438.15,17.55,550.54,15.52s205.56,67,163.9,264.86S801,500.58,818.69,571.61s-26,95.81-26,95.81Z" fill="#0071f2"/><path d="M132.53,665S32,583.79,43.8,498.55s108.44-14.21,132.1-91.33S112.35,229.33,191.45,159s152.05-3.4,201.35-17.61S438.15,17.55,550.54,15.52s205.56,67,163.9,264.86S801,500.58,818.69,571.61s-26,95.81-26,95.81Z" fill="#fff" opacity="0.7"/><rect x="531.85" y="395.97" width="16.47" height="269.41" fill="#bcbec0"/><rect x="164.33" y="391.13" width="165.06" height="272.95" fill="#bcbec0"/><rect x="173.09" y="585.7" width="147.54" height="61.78" fill="#d1d3d4"/><rect x="173.09" y="499.02" width="147.54" height="61.78" fill="#d1d3d4"/><path d="M315.72,575.54H178a1.23,1.23,0,0,1,0-2.45H315.72a1.23,1.23,0,1,1,0,2.45Z" fill="#d1d3d4"/><circle cx="245.3" cy="522.56" r="6.34" fill="#bcbec0"/><circle cx="244.82" cy="616.14" r="6.34" fill="#bcbec0"/><rect x="172.44" y="392.47" width="147.65" height="99.86" fill="#a7a9ac"/><path d="M193,433.92H310.9a0,0,0,0,1,0,0v30.23a0,0,0,0,1,0,0H193A10.11,10.11,0,0,1,182.86,454V444A10.11,10.11,0,0,1,193,433.92Z" fill="#0071f2"/><path d="M199.86,439h111a0,0,0,0,1,0,0v20.19a0,0,0,0,1,0,0h-111a6.75,6.75,0,0,1-6.75-6.75v-6.69A6.75,6.75,0,0,1,199.86,439Z" fill="#fff"/><rect x="235.92" y="444.67" width="74.98" height="0.92" fill="#0071f2"/><rect x="271.81" y="452.04" width="39.09" height="0.92" fill="#0071f2"/><path d="M207.37,464.15H300a0,0,0,0,1,0,0v28.09a0,0,0,0,1,0,0h-92.6a9.39,9.39,0,0,1-9.39-9.39v-9.3a9.39,9.39,0,0,1,9.39-9.39Z" fill="#2f2e41"/><path d="M215.71,469.48h83.93a0,0,0,0,1,0,0v18.26a0,0,0,0,1,0,0H215.71a6.11,6.11,0,0,1-6.11-6.11v-6.05A6.11,6.11,0,0,1,215.71,469.48Z" fill="#fff"/><rect x="286.54" y="313.69" width="97.63" height="47.68" fill="#2f2e41"/><path d="M334.31,50.81H327.1a16.48,16.48,0,0,0-16.48,16.48v27.3h40.16V67.29A16.48,16.48,0,0,0,334.31,50.81Zm10.32,41.61H316.41V68.18A11.58,11.58,0,0,1,328,56.6h5.06a11.58,11.58,0,0,1,11.58,11.58Z" fill="#0071f2"/><path d="M344.8,68.18A11.69,11.69,0,0,0,333,56.6h-5.16A11.69,11.69,0,0,0,316,68.18V92.42h1.67V70A10.19,10.19,0,0,1,328,59.86h4.5A10.18,10.18,0,0,1,342.78,70V92.42h2Z" fill="#2f2e41"/><rect x="317.71" y="92.42" width="25.07" height="0.08" fill="#2f2e41"/><path d="M481.29,627.72l1.2-25.72,31.09.6.6,25.12s10.17,26.9-11.36,27.5l-58.6.6s-12-8.37,4.78-15.55Z" fill="#f9b499"/><path d="M408.94,637.28l1.2-25.71,31.09.6.6,25.11s10.16,26.91-11.36,27.51l-58.6.6s-12-8.38,4.78-15.55Z" fill="#f9b499"/><polygon points="442.43 634.89 408.94 623.53 410.14 611.57 441.23 612.17 442.43 634.89" fill="#f7a48b"/><polygon points="481.29 614.56 514.18 624.73 513.58 602.6 482.49 602 481.29 614.56" fill="#f7a48b"/><rect x="565.55" y="552.56" width="4.31" height="97" fill="#0071f2"/><polygon points="588.19 557.59 550.11 557.59 537.89 507.3 597.53 507.3 588.19 557.59" fill="#2f2e41"/><polygon points="478.3 610.38 453.79 494.37 515.97 494.37 518.37 610.97 478.3 610.38" fill="#2f2e41"/><polygon points="517.77 538.19 453.82 500.11 515.62 500.11 517.77 538.19" opacity="0.2"/><path d="M406.55,617.55l37.67-3-1.79-114.21,110.92,1.5.89-45.15-43.65-38.27L405.35,450.12s-38.27,9.57-22.72,64.58Z" fill="#2f2e41"/><rect x="139.89" y="380.06" width="467.52" height="12.91" fill="#d1d3d4"/><polygon points="577.46 184.32 579.43 209.44 539.54 218.79 534.62 202.05 554.32 164.62 577.46 184.32" fill="#f9b499"/><polygon points="539.11 217.31 534.62 202.05 548.23 190.65 539.11 217.31" fill="#f7a48b"/><rect x="185.95" y="121.35" width="296.14" height="191" fill="#fff"/><polygon points="188.95 313.14 188.95 123.1 484.84 123.1 484.84 110.72 180.91 110.72 180.91 314.38 188.95 313.14" fill="#2f2e41"/><path d="M176.3,107.58V319.8H490.77V107.58ZM482.09,309.19H186v-191H482.09Z" fill="#0071f2"/><path d="M176.3,107.58V319.8H490.77V107.58ZM482.09,309.19H186v-191H482.09Z" fill="#fff" opacity="0.2"/><rect x="302.21" y="86.25" width="57.68" height="48.06" fill="#0071f2"/><rect x="302.21" y="134.31" width="57.64" height="8.33" fill="#2f2e41"/><path d="M335.16,105.86a4.09,4.09,0,1,0-5.07,4v9.72h2v-9.72A4.07,4.07,0,0,0,335.16,105.86Z" fill="#fff"/><rect x="262.32" y="207.73" width="136.23" height="30.27" fill="#0071f2"/><rect x="309.24" y="259.95" width="43.14" height="9.08" fill="#2f2e41"/><polygon points="427.31 380.29 256.06 380.4 265.61 361.53 268.37 356.07 411.15 356.83 414.39 361.53 427.31 380.29" fill="#0071f2"/><polygon points="414.39 361.53 265.61 361.53 268.37 356.07 411.15 356.83 414.39 361.53" fill="#fff" opacity="0.2"/><path d="M470.93,323.47l40.65,29.77-2.17,60.26s-1.46,18.15,13.06,27.59c0,0,26.87,19.6,38.48,25.41L635,287.17s-5.81-43.56-29.77-72.6c0,0-14.52-15.25-56.63-1.45,0,0-27.59,6.53-45,46.46Z" fill="#0071f2"/><polygon points="363.73 291.96 403.78 332.66 430.06 320.48 389.69 279.79 363.73 291.96" fill="#e6e7e8"/><polygon points="357.64 296.45 363.73 291.96 403.78 332.66 397.7 336.5 357.64 296.45" fill="#0071f2"/><path d="M518.82,234.29a25.6,25.6,0,0,1,7.65,3.63c.57.42,1.18.79,1.72,1.25l1.64,1.36c.54.47,1,1,1.53,1.49l.76.76c.24.26.46.54.69.81a39.78,39.78,0,0,1,7.83,15.06c3.1,11,2.78,22.77.16,33.83-.65,2.78-1.5,5.5-2.32,8.19L536,308.78l-5,16.23c-3.36,10.8-6.68,21.6-10.14,32.37l-.06.2-.18-.09-9.09-4.25,9.23,3.93-.24.11c3.08-10.88,6.3-21.72,9.47-32.58l4.86-16.25,2.42-8.13c.8-2.72,1.66-5.39,2.32-8.12a74.36,74.36,0,0,0,2.14-16.66c0-1.4,0-2.81-.08-4.21l-.39-4.19a34.34,34.34,0,0,0-.62-4.15l-.37-2.07c-.13-.69-.36-1.35-.54-2a39.46,39.46,0,0,0-7.4-14.94c-.22-.27-.43-.56-.65-.82l-.73-.77c-.49-.5-1-1-1.46-1.51l-1.58-1.4c-.52-.47-1.11-.85-1.67-1.28A26.57,26.57,0,0,0,518.82,234.29Z" opacity="0.2"/><rect x="462.45" y="500.11" width="211.97" height="10.78" fill="#0071f2"/><path d="M538.52,647.55H596.9a11.05,11.05,0,0,1,11.05,11.05v5.47a0,0,0,0,1,0,0H527.47a0,0,0,0,1,0,0v-5.47A11.05,11.05,0,0,1,538.52,647.55Z" fill="#2f2e41"/><path d="M552.41,499.88s-14.49-108.71,56-216.11h9.88l19.76.66L602.49,499.22Z" fill="#2f2e41"/><path d="M552.41,499.88s-14.49-108.71,56-216.11h9.88l19.76.66L602.49,499.22Z" opacity="0.2"/><ellipse cx="526.74" cy="162.9" rx="28.07" ry="44.57" fill="#f9b499"/><path d="M541,170l23.64,22.16C578,199.09,586.33,172,586.33,172,599.62,129.16,575,111.93,575,111.93c-18.22-22.65-34.47-14.28-34.47-14.28-8.38,3.44-23.64,7.38-23.64,7.38-13.3,2.47-18.72,14.29-18.72,14.29-8.86,22.16,18.72,30,18.72,30s-5.42,29.54,9.36,18.71l8.12-.25Z" fill="#2f2e41"/><ellipse cx="534.37" cy="167.82" rx="9.6" ry="7.63" transform="translate(270.43 661.84) rotate(-79.32)" fill="#f9b499"/><circle cx="281.7" cy="222.87" r="4.49" fill="#fff"/><circle cx="305.67" cy="222.87" r="4.49" fill="#fff"/><circle cx="328.64" cy="222.87" r="4.49" fill="#fff"/><circle cx="352.61" cy="222.87" r="4.49" fill="#fff"/><circle cx="375.08" cy="222.87" r="4.49" fill="#fff"/><path d="M289.11,181a3.48,3.48,0,0,1-1.49,1.42,5.42,5.42,0,0,1-2.56.54H283v4.81h-2.51V175.22h4.61a5.65,5.65,0,0,1,2.48.5,3.56,3.56,0,0,1,1.53,1.38,3.92,3.92,0,0,1,.52,2A3.87,3.87,0,0,1,289.11,181Zm-2.61-.55a1.75,1.75,0,0,0,.5-1.33q0-1.83-2-1.83h-2v3.64h2A2.17,2.17,0,0,0,286.5,180.43Z" fill="#2f2e41"/><path d="M299,185.36h-5l-.82,2.39h-2.64l4.5-12.55H298l4.5,12.55h-2.65Zm-.68-2-1.81-5.24-1.82,5.24Z" fill="#2f2e41"/><path d="M306.17,187.42a3.91,3.91,0,0,1-1.66-1.29,3.43,3.43,0,0,1-.62-2h2.69a1.76,1.76,0,0,0,.54,1.22,2,2,0,0,0,1.36.45,2.07,2.07,0,0,0,1.38-.42,1.37,1.37,0,0,0,.5-1.11,1.25,1.25,0,0,0-.34-.91,2.36,2.36,0,0,0-.85-.57,13.84,13.84,0,0,0-1.41-.46,14.57,14.57,0,0,1-2-.7,3.52,3.52,0,0,1-1.31-1.06,3,3,0,0,1-.55-1.9,3.43,3.43,0,0,1,.56-1.94,3.57,3.57,0,0,1,1.56-1.26,5.75,5.75,0,0,1,2.3-.44,5,5,0,0,1,3.15.94,3.51,3.51,0,0,1,1.33,2.63h-2.76a1.48,1.48,0,0,0-.55-1.07,2.06,2.06,0,0,0-1.35-.42,1.76,1.76,0,0,0-1.18.38,1.37,1.37,0,0,0-.44,1.09,1.14,1.14,0,0,0,.33.84,2.59,2.59,0,0,0,.83.54c.33.13.79.29,1.39.47a14.5,14.5,0,0,1,2,.72,3.54,3.54,0,0,1,1.33,1.08,3,3,0,0,1,.56,1.88,3.64,3.64,0,0,1-.52,1.87,3.72,3.72,0,0,1-1.53,1.37,5.23,5.23,0,0,1-2.39.51A6,6,0,0,1,306.17,187.42Z" fill="#2f2e41"/><path d="M317.1,187.42a3.91,3.91,0,0,1-1.66-1.29,3.51,3.51,0,0,1-.63-2h2.7a1.72,1.72,0,0,0,.54,1.22,1.94,1.94,0,0,0,1.36.45,2.11,2.11,0,0,0,1.38-.42,1.4,1.4,0,0,0,.5-1.11,1.25,1.25,0,0,0-.34-.91,2.44,2.44,0,0,0-.85-.57,13.84,13.84,0,0,0-1.41-.46,14.57,14.57,0,0,1-2-.7,3.52,3.52,0,0,1-1.31-1.06,3,3,0,0,1-.55-1.9,3.43,3.43,0,0,1,.56-1.94,3.57,3.57,0,0,1,1.56-1.26,5.7,5.7,0,0,1,2.29-.44,4.94,4.94,0,0,1,3.15.94,3.49,3.49,0,0,1,1.34,2.63H321a1.48,1.48,0,0,0-.55-1.07,2.07,2.07,0,0,0-1.36-.42,1.73,1.73,0,0,0-1.17.38,1.37,1.37,0,0,0-.44,1.09,1.14,1.14,0,0,0,.33.84,2.59,2.59,0,0,0,.83.54c.33.13.79.29,1.39.47a14.5,14.5,0,0,1,2,.72,3.61,3.61,0,0,1,1.33,1.08,3,3,0,0,1,.55,1.88,3.54,3.54,0,0,1-.52,1.87,3.63,3.63,0,0,1-1.52,1.37,5.23,5.23,0,0,1-2.39.51A6,6,0,0,1,317.1,187.42Z" fill="#2f2e41"/><path d="M342.81,175.22l-3.5,12.53h-3L334,178.83l-2.46,8.92h-3l-3.37-12.54h2.69l2.21,9.73,2.55-9.73h2.8l2.4,9.67,2.23-9.67Z" fill="#2f2e41"/><path d="M347,187.05a6.17,6.17,0,0,1-2.33-2.29,6.78,6.78,0,0,1,0-6.61,6.15,6.15,0,0,1,2.33-2.28,6.72,6.72,0,0,1,6.47,0,6.12,6.12,0,0,1,2.32,2.28,6.85,6.85,0,0,1,0,6.61,6.17,6.17,0,0,1-2.33,2.29,6.77,6.77,0,0,1-6.46,0Zm5.23-1.93a3.54,3.54,0,0,0,1.34-1.47,5.18,5.18,0,0,0,0-4.4,3.49,3.49,0,0,0-1.34-1.45,4.25,4.25,0,0,0-4,0,3.44,3.44,0,0,0-1.35,1.45,5.18,5.18,0,0,0,0,4.4,3.5,3.5,0,0,0,1.35,1.47,4.18,4.18,0,0,0,4,0Z" fill="#2f2e41"/><path d="M365,187.75l-2.77-4.89H361v4.89h-2.51V175.22h4.7a5.47,5.47,0,0,1,2.47.51,3.53,3.53,0,0,1,1.54,1.38,3.78,3.78,0,0,1,.51,1.95,3.64,3.64,0,0,1-2.85,3.61l3,5.08ZM361,181h2.1a2.07,2.07,0,0,0,1.52-.49,1.83,1.83,0,0,0,.51-1.38,1.72,1.72,0,0,0-.51-1.33,2.12,2.12,0,0,0-1.52-.48H361Z" fill="#2f2e41"/><path d="M377.88,176a5.51,5.51,0,0,1,2.31,2.2,6.48,6.48,0,0,1,.82,3.31,6.38,6.38,0,0,1-.82,3.29,5.47,5.47,0,0,1-2.31,2.18,7.43,7.43,0,0,1-3.47.78H370V175.22h4.38A7.55,7.55,0,0,1,377.88,176Zm-.51,8.54a4.12,4.12,0,0,0,1.07-3,4.24,4.24,0,0,0-1.07-3.06,4.1,4.1,0,0,0-3.05-1.1h-1.78v8.27h1.78A4.13,4.13,0,0,0,377.37,184.53Z" fill="#2f2e41"/><path d="M735.58,283.12c-68.53,130.45-61.17,217-61.17,217l-114.09-.23c-10.54-133.09,58-216.11,58-216.11Z" fill="#2f2e41"/><path d="M455,351.06l16-27.59,40.65,29.77L492,380.1l-74.1.62-47.1-58.31s-1.92-16,2.88-15.38c0,0,5.77-1.29,3.53,11.85,0,0,11.53,2.24,14.1,14.42,0,0,14.42-3.84,24,1.28Z" fill="#f9b499"/><line x1="454.95" y1="351.06" x2="464.13" y2="357.61" fill="none" stroke="#f7a48b" stroke-miterlimit="10"/><polygon points="468 328.08 501.88 366.32 511.58 353.24 470.93 323.47 468 328.08" fill="#f7a48b"/><rect x="261.19" y="473.51" width="39.09" height="0.92" fill="#2f2e41"/><polygon points="189.32 265.2 416.52 123.89 481.94 123.39 481.94 171.83 258.73 308.65 188.82 308.65 189.32 265.2" fill="#0071f2" opacity="0.08"/><path d="M743.81,591.36a317.14,317.14,0,0,0-.46-33.35,423.94,423.94,0,0,0-10.45-67.95c-2.91-12.58-6.5-24.94-10.24-37.32-.11-.37-.71-.27-.6.12,11.55,43.54,21,88.46,20.39,133.71-.18,12.67-1.65,25.1-2.85,37.68,0,.34.51.47.6.14C742.58,613.65,743.35,602.37,743.81,591.36Z" fill="#0071f2"/><path d="M722.06,452.9s-17.52,44.45-13.6,54.9,12,12.68,12,12.68-10.71,15.3-3.22,29.65,24.07,13.66,25.28,29.94C742.47,580.07,743.4,512,722.06,452.9Z" fill="#0071f2"/><path d="M740.57,552a.45.45,0,0,0,0-.23,406.94,406.94,0,0,0-17-89.43c0-.08-.17-.06-.14,0,3.46,13,6.56,26.08,9.19,39.22a19.32,19.32,0,0,0-8.35-4.66c-.06,0-.1.07,0,.09a22.15,22.15,0,0,1,8.63,5.77c.51,2.58,1,5.15,1.49,7.73-3.92-4.37-9.34-6.54-14.78-8.61-.07,0-.11.1,0,.12,5.66,2.3,11.29,5.27,15.12,10.15q2,11.07,3.52,22.2a21.22,21.22,0,0,0-10.44-6c-.12,0-.19.16-.07.19a22.12,22.12,0,0,1,10.59,6.78h.07c.35,2.61.68,5.24,1,7.85a27.19,27.19,0,0,0-7.32-4.42c-.07,0-.11.09,0,.12a24.86,24.86,0,0,1,7.33,4.82h.1c.29,2.48.59,5,.84,7.48a35.51,35.51,0,0,0-14.86-10.61.09.09,0,0,0-.12.14.05.05,0,0,0,0,0A38.74,38.74,0,0,1,740,552a.36.36,0,0,0,.38.12c.37,3.81.72,7.65,1,11.49h.09C741.16,559.83,740.85,555.9,740.57,552Z" fill="#2f2e41"/><path d="M726.5,492.48A22,22,0,0,0,716,489.21c-.09,0-.1.12,0,.13a41.55,41.55,0,0,1,10.4,3.4C726.52,492.81,726.63,492.58,726.5,492.48Z" fill="#2f2e41"/><path d="M728.62,539.56a22,22,0,0,0-7.9-2.71c-.1,0-.1.13,0,.16a28.89,28.89,0,0,1,7.81,2.73C728.63,539.8,728.72,539.62,728.62,539.56Z" fill="#2f2e41"/><path d="M789.85,508.52a119.69,119.69,0,0,0-20.28,17.72,73.06,73.06,0,0,0-14.21,24.08A180.15,180.15,0,0,0,744.77,608a140.24,140.24,0,0,0,3.12,32.5.31.31,0,0,0,.41.17.3.3,0,0,0,.19-.29,182,182,0,0,1,.33-56.68c3-18.39,7.73-38.39,19.42-53.34,6.37-8.14,14.3-14.55,22.15-21.16A.43.43,0,0,0,789.85,508.52Z" fill="#0071f2"/><path d="M747.35,594.75a108.46,108.46,0,0,1,14.77-18.89c8.77-8.76,16.15-15,17.28-20.77S770.62,545,770.62,545s12.13,2.18,15.45-2.91S791,507.56,791,507.56s-22.07,15.77-32.34,37.82S747.35,594.75,747.35,594.75Z" fill="#0071f2"/><path d="M783.36,515.13c-9.28,9.11-18.63,18.83-24.08,30.81a120.08,120.08,0,0,0-4.82,12.7h0c-.28.87-.56,1.73-.83,2.61a.38.38,0,0,0,0,.15,250.73,250.73,0,0,0-6.27,27.22c0,.06.09.09.1,0,.95-4.6,2-9.25,3.16-13.87h.14a19.29,19.29,0,0,1,5.79-1.48c.13,0,.12-.24,0-.23a21.46,21.46,0,0,0-5.73,1.05c1.07-4.18,2.24-8.35,3.54-12.45a62.29,62.29,0,0,1,13-1.68v-.06A49.12,49.12,0,0,0,754.48,561c.23-.7.45-1.4.7-2.11a67.24,67.24,0,0,1,8.7-1.47m0-.09a42,42,0,0,0-8.52,1c1.2-3.55,2.5-7.05,3.93-10.46a64.38,64.38,0,0,1,4.17-8.09,54.39,54.39,0,0,1,7.07-1.21v-.12a19.08,19.08,0,0,0-6.6.65c1.2-1.86,2.41-3.7,3.68-5.47h0c4.95-1.1,10-2.12,15-1.21a.08.08,0,0,0,0-.15c-4.82-1.27-9.63-.53-14.45.42.52-.7,1.06-1.39,1.6-2.07a32.49,32.49,0,0,1,9.24-1.46.05.05,0,1,0,0-.1,24.39,24.39,0,0,0-8.63.76c4.1-5.08,8.61-9.85,13.08-14.57.25-.22.1-.36-.12-.14Z" fill="#2f2e41"/><path d="M783.11,535.22a20.13,20.13,0,0,0-4.39-.15c-.18,0-.16.31,0,.31,1.46,0,2.91-.06,4.36,0A.08.08,0,1,0,783.11,535.22Z" fill="#2f2e41"/><path d="M767.23,563.82a19.7,19.7,0,0,0-6.79,1.36v.09c2.25-.54,4.52-.75,6.79-1.13a.16.16,0,0,0,.11-.21A.15.15,0,0,0,767.23,563.82Z" fill="#2f2e41"/><path d="M762.52,553.93a13.91,13.91,0,0,0-2.88.27c-.09,0-.09.17,0,.17a14.8,14.8,0,0,0,2.9-.14.16.16,0,0,0,.1-.2A.17.17,0,0,0,762.52,553.93Z" fill="#2f2e41"/><path d="M682.69,539.8a100.58,100.58,0,0,1,20.46,9.63,61.13,61.13,0,0,1,17.08,16.23,151.42,151.42,0,0,1,21.89,44.21,118.24,118.24,0,0,1,5,27,.27.27,0,0,1-.32.21.26.26,0,0,1-.2-.21,153.18,153.18,0,0,0-13.36-45.74c-6.69-14.19-15.14-29.3-28-38.69-7-5.11-14.94-8.42-22.82-12C682,540.24,682.28,539.65,682.69,539.8Z" fill="#0071f2"/><path d="M737,599.78a91.08,91.08,0,0,0-16.33-11.87c-9.11-5.07-16.53-8.43-18.79-12.82s4.82-10.18,4.82-10.18-9.31,4.57-13.17,1.21-12-26.84-12-26.84,21.49,7.65,34.91,23.14S737,599.78,737,599.78Z" fill="#0071f2"/><path d="M735.9,594.94c-10.75-20.18-25.09-38.43-44.75-50.48h0a99.57,99.57,0,0,1,14.38,11.25A22.86,22.86,0,0,0,694,558.12c-.08,0,0,.15,0,.12a31.76,31.76,0,0,1,11.89-2,.17.17,0,0,0,.14,0c.7.66,1.38,1.34,2.07,2a36.71,36.71,0,0,0-6.18.82c-.06,0,0,.1,0,.09a31.77,31.77,0,0,1,6.53-.55,138.26,138.26,0,0,1,10.13,11.51,10.51,10.51,0,0,0-4.32.32.08.08,0,0,0-.08.08.09.09,0,0,0,.08.09,22.92,22.92,0,0,1,4.61-.07c.59.75,1.21,1.5,1.76,2.26a41.8,41.8,0,0,0-13,1.26m0,.1a52.84,52.84,0,0,1,13.4-.87c.54.72,1.07,1.48,1.6,2.21a27.47,27.47,0,0,0-7.76.9.08.08,0,0,0-.08.07.08.08,0,0,0,.08.07h0a30.07,30.07,0,0,1,8-.63q3.46,4.82,6.66,9.74a7.56,7.56,0,0,0-3.41.21m0,.1a14.17,14.17,0,0,1,3.68.18c1.91,3,3.76,6,5.54,9,.31.27.72.07.59-.19Z" fill="#2f2e41"/><path d="M719.18,578.2a16.77,16.77,0,0,0-6.25.76v.1a46.19,46.19,0,0,1,6.21-.64C719.3,578.41,719.32,578.22,719.18,578.2Z" fill="#2f2e41"/><path d="M700.43,553.61a10.6,10.6,0,0,0-2.92.2.09.09,0,0,0-.09.09.09.09,0,0,0,.09.08c1-.1,1.89-.06,2.83-.08a.16.16,0,0,0,.19-.1A.15.15,0,0,0,700.43,553.61Z" fill="#2f2e41"/><polygon points="764.73 666.49 716.23 666.49 723.14 615.83 724.91 602.84 756.05 602.84 757.82 615.83 764.73 666.49" fill="#2f2e41"/><polygon points="757.82 615.83 723.14 615.83 724.91 602.84 756.05 602.84 757.82 615.83" opacity="0.2"/><rect x="720.45" y="598.32" width="40.04" height="11" fill="#2f2e41"/></svg>